<?xml version="1.0" encoding="UTF-8" standalone="no"?>
<!DOCTYPE svg PUBLIC "-//W3C//DTD SVG 1.1//EN"
 "http://www.w3.org/Graphics/SVG/1.1/DTD/svg11.dtd">
<!-- Generated by graphviz version 2.30.1 (20180420.1509)
 -->
<!-- Title: Analyzer Pages: 1 -->
<svg width="734pt" height="303pt"
 viewBox="0.00 0.00 734.00 303.00" xmlns="http://www.w3.org/2000/svg" xmlns:xlink="http://www.w3.org/1999/xlink">
<g id="graph0" class="graph" transform="scale(1 1) rotate(0) translate(4 299)">
<title>Analyzer</title>
<!-- Address -->
<g id="node1" class="node"><title>Address</title>
<g id="a_node1_0"><a xlink:href="IDMEF_NAV_LINK_TAG?idmef_class=Address" xlink:title="The Address class is used to represent network, hardware, and application addresses. ">
<polygon fill="#007a00" stroke="none" points="527,-270 527,-291 718,-291 718,-270 527,-270"/>
<polygon fill="none" stroke="black" points="527,-270 527,-291 718,-291 718,-270 527,-270"/>
<text text-anchor="start" x="600" y="-277.3" font-family="Times,serif" font-size="14.00">Address</text>
</a>
</g>
<g id="a_node1_1"><a xlink:href="IDMEF_NAV_LINK_TAG?idmef_class=Address" xlink:title="The network mask for the address, if appropriate.">
<polygon fill="#00cc00" stroke="none" points="527,-250 527,-270 718,-270 718,-250 527,-250"/>
<polygon fill="none" stroke="black" points="527,-250 527,-270 718,-270 718,-250 527,-250"/>
<text text-anchor="start" x="551.5" y="-256.8" font-family="Times,serif" font-size="14.00">[STRING] netmask (0..1)</text>
</a>
</g>
<g id="a_node1_2"><a xlink:href="IDMEF_NAV_LINK_TAG?idmef_class=Address" xlink:title="The address information. &#160;The format of this data is governed by the category attribute.">
<polygon fill="#00cc00" stroke="none" points="527,-230 527,-250 718,-250 718,-230 527,-230"/>
<polygon fill="none" stroke="black" points="527,-230 527,-250 718,-250 718,-230 527,-230"/>
<text text-anchor="start" x="561.5" y="-236.8" font-family="Times,serif" font-size="14.00">[STRING] address (1)</text>
</a>
</g>
<g id="a_node1_3"><a xlink:href="IDMEF_NAV_LINK_TAG?idmef_class=Address" xlink:title="The type of address represented. &#160;The permitted values for this attribute are shown below. &#160;The default value is &quot;unknown&quot;. &#160;(See also Section 10.)">
<polygon fill="#00cc00" stroke="none" points="527,-210 527,-230 718,-230 718,-210 527,-210"/>
<polygon fill="none" stroke="black" points="527,-210 527,-230 718,-230 718,-210 527,-210"/>
<text text-anchor="start" x="542.5" y="-216.8" font-family="Times,serif" font-size="14.00">[ENUM] category (Optional)</text>
</a>
</g>
<g id="a_node1_4"><a xlink:href="IDMEF_NAV_LINK_TAG?idmef_class=Address" xlink:title="The name of the Virtual LAN to which the address belongs.">
<polygon fill="#00cc00" stroke="none" points="527,-190 527,-210 718,-210 718,-190 527,-190"/>
<polygon fill="none" stroke="black" points="527,-190 527,-210 718,-210 718,-190 527,-190"/>
<text text-anchor="start" x="532.5" y="-196.8" font-family="Times,serif" font-size="14.00">[STRING] vlan&#45;name (Optional)</text>
</a>
</g>
<g id="a_node1_5"><a xlink:href="IDMEF_NAV_LINK_TAG?idmef_class=Address" xlink:title="The number of the Virtual LAN to which the address belongs.">
<polygon fill="#00cc00" stroke="none" points="527,-170 527,-190 718,-190 718,-170 527,-170"/>
<polygon fill="none" stroke="black" points="527,-170 527,-190 718,-190 718,-170 527,-170"/>
<text text-anchor="start" x="530.5" y="-176.8" font-family="Times,serif" font-size="14.00">[INTEGER] vlan&#45;num (Optional)</text>
</a>
</g>
<g id="a_node1_6"><a xlink:href="IDMEF_NAV_LINK_TAG?idmef_class=Address" xlink:title="A unique identifier for the address; see Section 3.2.9.">
<polygon fill="#00cc00" stroke="none" points="527,-150 527,-170 718,-170 718,-150 527,-150"/>
<polygon fill="none" stroke="black" points="527,-150 527,-170 718,-170 718,-150 527,-150"/>
<text text-anchor="start" x="548" y="-156.8" font-family="Times,serif" font-size="14.00">[STRING] ident (Optional)</text>
</a>
</g>
</g>
<!-- Node -->
<g id="node2" class="node"><title>Node</title>
<g id="a_node2_7"><a xlink:href="IDMEF_NAV_LINK_TAG?idmef_class=Node" xlink:title="The Node class is used to identify hosts and other network devices (routers, switches, etc.). ">
<polygon fill="#007a00" stroke="none" points="285,-250 285,-271 452,-271 452,-250 285,-250"/>
<polygon fill="none" stroke="black" points="285,-250 285,-271 452,-271 452,-250 285,-250"/>
<text text-anchor="start" x="353.5" y="-257.3" font-family="Times,serif" font-size="14.00">Node</text>
</a>
</g>
<g id="a_node2_8"><a xlink:href="IDMEF_NAV_LINK_TAG?idmef_class=Node" xlink:title="The location of the equipment.">
<polygon fill="#00cc00" stroke="none" points="285,-230 285,-250 452,-250 452,-230 285,-230"/>
<polygon fill="none" stroke="black" points="285,-230 285,-250 452,-250 452,-230 285,-230"/>
<text text-anchor="start" x="299" y="-236.8" font-family="Times,serif" font-size="14.00">[STRING] location (0..1)</text>
</a>
</g>
<g id="a_node2_9"><a xlink:href="IDMEF_NAV_LINK_TAG?idmef_class=Node" xlink:title="The name of the equipment. &#160;This information MUST be provided if no Address information is given.">
<polygon fill="#00cc00" stroke="none" points="285,-210 285,-230 452,-230 452,-210 285,-210"/>
<polygon fill="none" stroke="black" points="285,-210 285,-230 452,-230 452,-210 285,-210"/>
<text text-anchor="start" x="305.5" y="-216.8" font-family="Times,serif" font-size="14.00">[STRING] name (0..1)</text>
</a>
</g>
<g id="a_node2_10"><a xlink:href="IDMEF_NAV_LINK_TAG?idmef_class=Node" xlink:title="The &quot;domain&quot; from which the name information was obtained, if relevant. &#160;The permitted values for this attribute are shown in the table below. &#160;The default value is &quot;unknown&quot;. (See also Section 10 for extensions to the table.)">
<polygon fill="#00cc00" stroke="none" points="285,-190 285,-210 452,-210 452,-190 285,-190"/>
<polygon fill="none" stroke="black" points="285,-190 285,-210 452,-210 452,-190 285,-190"/>
<text text-anchor="start" x="288.5" y="-196.8" font-family="Times,serif" font-size="14.00">[ENUM] category (Optional)</text>
</a>
</g>
<g id="a_node2_11"><a xlink:href="IDMEF_NAV_LINK_TAG?idmef_class=Node" xlink:title="A unique identifier for the node; see Section 3.2.9.">
<polygon fill="#00cc00" stroke="none" points="285,-170 285,-190 452,-190 452,-170 285,-170"/>
<polygon fill="none" stroke="black" points="285,-170 285,-190 452,-190 452,-170 285,-170"/>
<text text-anchor="start" x="294" y="-176.8" font-family="Times,serif" font-size="14.00">[STRING] ident (Optional)</text>
</a>
</g>
</g>
<!-- Node&#45;&gt;Address -->
<g id="edge1" class="edge"><title>Node&#45;&gt;Address</title>
<path fill="none" stroke="black" d="M459.622,-221C475.397,-221 491.977,-221 508.259,-221"/>
<polygon fill="black" stroke="black" points="508.348,-224.5 518.348,-221 508.348,-217.5 508.348,-224.5"/>
<text text-anchor="middle" x="489" y="-224.8" font-family="Times,serif" font-size="14.00">0..*</text>
</g>
<!-- Analyzer -->
<g id="node3" class="node"><title>Analyzer</title>
<g id="a_node3_12"><a xlink:href="IDMEF_NAV_LINK_TAG?idmef_class=Analyzer" xlink:title="The Analyzer class identifies the analyzer from which the Alert or Heartbeat message originates. &#160;Only one analyzer may be encoded for each alert or heartbeat, and that MUST be the analyzer at which the alert or heartbeat originated. &#160;Although the IDMEF data model does not prevent the use of hierarchical intrusion detection systems (where alerts get relayed up the tree), it does not provide any way to record the identity of the &quot;relay&quot; analyzers along the path from the originating analyzer to the manager that ultimately receives the alert. ">
<polygon fill="#99993d" stroke="none" points="8,-189 8,-210 210,-210 210,-189 8,-189"/>
<polygon fill="none" stroke="black" points="8,-189 8,-210 210,-210 210,-189 8,-189"/>
<text text-anchor="start" x="84" y="-196.3" font-family="Times,serif" font-size="14.00">Analyzer</text>
</a>
</g>
<g id="a_node3_13"><a xlink:href="IDMEF_NAV_LINK_TAG?idmef_class=Analyzer" xlink:title="An explicit name for the analyzer that may be easier to understand than the analyzerid.">
<polygon fill="#ffff66" stroke="none" points="8,-169 8,-189 210,-189 210,-169 8,-169"/>
<polygon fill="none" stroke="black" points="8,-169 8,-189 210,-189 210,-169 8,-169"/>
<text text-anchor="start" x="33" y="-175.8" font-family="Times,serif" font-size="14.00">[STRING] name (Optional)</text>
</a>
</g>
<g id="a_node3_14"><a xlink:href="IDMEF_NAV_LINK_TAG?idmef_class=Analyzer" xlink:title="The version number of the analyzer software and/or hardware.">
<polygon fill="#ffff66" stroke="none" points="8,-149 8,-169 210,-169 210,-149 8,-149"/>
<polygon fill="none" stroke="black" points="8,-149 8,-169 210,-169 210,-149 8,-149"/>
<text text-anchor="start" x="28" y="-155.8" font-family="Times,serif" font-size="14.00">[STRING] version (Optional)</text>
</a>
</g>
<g id="a_node3_15"><a xlink:href="IDMEF_NAV_LINK_TAG?idmef_class=Analyzer" xlink:title="Operating system name. &#160;On POSIX 1003.1 compliant systems, this is the value returned in utsname.sysname by the uname() system call, or the output of the &quot;uname &#45;s&quot; command.">
<polygon fill="#ffff66" stroke="none" points="8,-129 8,-149 210,-149 210,-129 8,-129"/>
<polygon fill="none" stroke="black" points="8,-129 8,-149 210,-149 210,-129 8,-129"/>
<text text-anchor="start" x="30.5" y="-135.8" font-family="Times,serif" font-size="14.00">[STRING] ostype (Optional)</text>
</a>
</g>
<g id="a_node3_16"><a xlink:href="IDMEF_NAV_LINK_TAG?idmef_class=Analyzer" xlink:title="The model name/number of the analyzer software and/or hardware.">
<polygon fill="#ffff66" stroke="none" points="8,-109 8,-129 210,-129 210,-109 8,-109"/>
<polygon fill="none" stroke="black" points="8,-109 8,-129 210,-129 210,-109 8,-109"/>
<text text-anchor="start" x="30.5" y="-115.8" font-family="Times,serif" font-size="14.00">[STRING] model (Optional)</text>
</a>
</g>
<g id="a_node3_17"><a xlink:href="IDMEF_NAV_LINK_TAG?idmef_class=Analyzer" xlink:title="Operating system version. &#160;On POSIX 1003.1 compliant systems, this is the value returned in utsname.release by the uname() system call, or the output of the &quot;uname &#45;r&quot; command.">
<polygon fill="#ffff66" stroke="none" points="8,-89 8,-109 210,-109 210,-89 8,-89"/>
<polygon fill="none" stroke="black" points="8,-89 8,-109 210,-109 210,-89 8,-89"/>
<text text-anchor="start" x="22" y="-95.8" font-family="Times,serif" font-size="14.00">[STRING] osversion (Optional)</text>
</a>
</g>
<g id="a_node3_18"><a xlink:href="IDMEF_NAV_LINK_TAG?idmef_class=Analyzer" xlink:title="The class of analyzer software and/or hardware.">
<polygon fill="#ffff66" stroke="none" points="8,-69 8,-89 210,-89 210,-69 8,-69"/>
<polygon fill="none" stroke="black" points="8,-69 8,-89 210,-89 210,-69 8,-69"/>
<text text-anchor="start" x="35" y="-75.8" font-family="Times,serif" font-size="14.00">[STRING] class (Optional)</text>
</a>
</g>
<g id="a_node3_19"><a xlink:href="IDMEF_NAV_LINK_TAG?idmef_class=Analyzer" xlink:title="The manufacturer of the analyzer software and/or hardware.">
<polygon fill="#ffff66" stroke="none" points="8,-49 8,-69 210,-69 210,-49 8,-49"/>
<polygon fill="none" stroke="black" points="8,-49 8,-69 210,-69 210,-49 8,-49"/>
<text text-anchor="start" x="11.5" y="-55.8" font-family="Times,serif" font-size="14.00">[STRING] manufacturer (Optional)</text>
</a>
</g>
<g id="a_node3_20"><a xlink:href="IDMEF_NAV_LINK_TAG?idmef_class=Analyzer" xlink:title="(but see below). &#160;A unique identifier for the analyzer; see Section 3.2.9.">
<polygon fill="#ffff66" stroke="none" points="8,-29 8,-49 210,-49 210,-29 8,-29"/>
<polygon fill="none" stroke="black" points="8,-29 8,-49 210,-49 210,-29 8,-29"/>
<text text-anchor="start" x="20" y="-35.8" font-family="Times,serif" font-size="14.00">[STRING] analyzerid (Optional)</text>
</a>
</g>
</g>
<!-- Analyzer&#45;&gt;Node -->
<g id="edge2" class="edge"><title>Analyzer&#45;&gt;Node</title>
<path fill="none" stroke="black" d="M218.246,-162.54C234.415,-168.895 251.023,-175.422 267.011,-181.705"/>
<polygon fill="black" stroke="black" points="265.758,-184.973 276.345,-185.373 268.318,-178.458 265.758,-184.973"/>
<text text-anchor="middle" x="247" y="-180.8" font-family="Times,serif" font-size="14.00">0..1</text>
</g>
<!-- Process -->
<g id="node4" class="node"><title>Process</title>
<g id="a_node4_21"><a xlink:href="IDMEF_NAV_LINK_TAG?idmef_class=Process" xlink:title="The Process class is used to describe processes being executed on sources, targets, and analyzers. ">
<polygon fill="#997a3d" stroke="none" points="290,-123 290,-144 446,-144 446,-123 290,-123"/>
<polygon fill="none" stroke="black" points="290,-123 290,-144 446,-144 446,-123 290,-123"/>
<text text-anchor="start" x="347" y="-130.3" font-family="Times,serif" font-size="14.00">Process</text>
</a>
</g>
<g id="a_node4_22"><a xlink:href="IDMEF_NAV_LINK_TAG?idmef_class=Process" xlink:title="The full path of the program being executed.">
<polygon fill="#ffcc66" stroke="none" points="290,-103 290,-123 446,-123 446,-103 290,-103"/>
<polygon fill="none" stroke="black" points="290,-103 290,-123 446,-123 446,-103 290,-103"/>
<text text-anchor="start" x="308.5" y="-109.8" font-family="Times,serif" font-size="14.00">[STRING] path (0..1)</text>
</a>
</g>
<g id="a_node4_23"><a xlink:href="IDMEF_NAV_LINK_TAG?idmef_class=Process" xlink:title="The process identifier of the process.">
<polygon fill="#ffcc66" stroke="none" points="290,-83 290,-103 446,-103 446,-83 290,-83"/>
<polygon fill="none" stroke="black" points="290,-83 290,-103 446,-103 446,-83 290,-83"/>
<text text-anchor="start" x="307" y="-89.8" font-family="Times,serif" font-size="14.00">[INTEGER] pid (0..1)</text>
</a>
</g>
<g id="a_node4_24"><a xlink:href="IDMEF_NAV_LINK_TAG?idmef_class=Process" xlink:title="The name of the program being executed. This is a short name; path and argument information are provided elsewhere.">
<polygon fill="#ffcc66" stroke="none" points="290,-63 290,-83 446,-83 446,-63 290,-63"/>
<polygon fill="none" stroke="black" points="290,-63 290,-83 446,-83 446,-63 290,-63"/>
<text text-anchor="start" x="312" y="-69.8" font-family="Times,serif" font-size="14.00">[STRING] name (1)</text>
</a>
</g>
<g id="a_node4_25"><a xlink:href="IDMEF_NAV_LINK_TAG?idmef_class=Process" xlink:title="An environment string associated with the process; generally of the format &quot;VARIABLE=value&quot;. &#160;Multiple environment strings may be specified with multiple uses of env.">
<polygon fill="#ffcc66" stroke="none" points="290,-43 290,-63 446,-63 446,-43 290,-43"/>
<polygon fill="none" stroke="black" points="290,-43 290,-63 446,-63 446,-43 290,-43"/>
<text text-anchor="start" x="310.5" y="-49.8" font-family="Times,serif" font-size="14.00">[STRING] env (0..*)</text>
</a>
</g>
<g id="a_node4_26"><a xlink:href="IDMEF_NAV_LINK_TAG?idmef_class=Process" xlink:title="A command&#45;line argument to the program. Multiple arguments may be specified (they are assumed to have occurred in the same order they are provided) with multiple uses of arg.">
<polygon fill="#ffcc66" stroke="none" points="290,-23 290,-43 446,-43 446,-23 290,-23"/>
<polygon fill="none" stroke="black" points="290,-23 290,-43 446,-43 446,-23 290,-23"/>
<text text-anchor="start" x="311.5" y="-29.8" font-family="Times,serif" font-size="14.00">[STRING] arg (0..*)</text>
</a>
</g>
<g id="a_node4_27"><a xlink:href="IDMEF_NAV_LINK_TAG?idmef_class=Process" xlink:title="A unique identifier for the process; see Section 3.2.9.">
<polygon fill="#ffcc66" stroke="none" points="290,-3 290,-23 446,-23 446,-3 290,-3"/>
<polygon fill="none" stroke="black" points="290,-3 290,-23 446,-23 446,-3 290,-3"/>
<text text-anchor="start" x="293.5" y="-9.8" font-family="Times,serif" font-size="14.00">[STRING] ident (Optional)</text>
</a>
</g>
</g>
<!-- Analyzer&#45;&gt;Process -->
<g id="edge3" class="edge"><title>Analyzer&#45;&gt;Process</title>
<path fill="none" stroke="black" d="M218.246,-100.625C236.021,-97.4438 254.326,-94.1674 271.754,-91.0479"/>
<polygon fill="black" stroke="black" points="272.677,-94.4385 281.904,-89.2312 271.443,-87.548 272.677,-94.4385"/>
<text text-anchor="middle" x="247" y="-100.8" font-family="Times,serif" font-size="14.00">0..1</text>
</g>
<!-- Analyzer&#45;&gt;Analyzer -->
<g id="edge4" class="edge"><title>Analyzer&#45;&gt;Analyzer</title>
<path fill="none" stroke="black" d="M87.0732,-214.373C91.1794,-225.068 98.4883,-232 109,-232 116.227,-232 121.94,-228.724 126.139,-223.201"/>
<polygon fill="black" stroke="black" points="129.236,-224.832 130.927,-214.373 123.082,-221.495 129.236,-224.832"/>
<text text-anchor="middle" x="109" y="-235.8" font-family="Times,serif" font-size="14.00">0..1</text>
</g>
</g>
</svg>
