<?xml version="1.0" encoding="UTF-8" standalone="no"?>
<!DOCTYPE svg PUBLIC "-//W3C//DTD SVG 1.1//EN"
 "http://www.w3.org/Graphics/SVG/1.1/DTD/svg11.dtd">
<!-- Generated by graphviz version 2.30.1 (20180420.1509)
 -->
<!-- Title: Assessment Pages: 1 -->
<svg width="352pt" height="230pt"
 viewBox="0.00 0.00 352.00 230.00" xmlns="http://www.w3.org/2000/svg" xmlns:xlink="http://www.w3.org/1999/xlink">
<g id="graph0" class="graph" transform="scale(1 1) rotate(0) translate(4 226)">
<title>Assessment</title>
<!-- Impact -->
<g id="node1" class="node"><title>Impact</title>
<g id="a_node1_0"><a xlink:href="IDMEF_NAV_LINK_TAG?idmef_class=Impact" xlink:title="The Impact class is used to provide the analyzer&#39;s assessment of the impact of the event on the target(s). &#160;It is represented in the IDMEF DTD as follows: ">
<polygon fill="#993015" stroke="none" points="154,-197 154,-218 336,-218 336,-197 154,-197"/>
<polygon fill="none" stroke="black" points="154,-197 154,-218 336,-218 336,-197 154,-197"/>
<text text-anchor="start" x="225.5" y="-204.3" font-family="Times,serif" font-size="14.00">Impact</text>
</a>
</g>
<g id="a_node1_1"><a xlink:href="IDMEF_NAV_LINK_TAG?idmef_class=Impact" xlink:title="Section 10.)">
<polygon fill="#ff5024" stroke="none" points="154,-177 154,-197 336,-197 336,-177 154,-177"/>
<polygon fill="none" stroke="black" points="154,-177 154,-197 336,-197 336,-177 154,-177"/>
<text text-anchor="start" x="157.5" y="-183.8" font-family="Times,serif" font-size="14.00">[ENUM] completion (Optional)</text>
</a>
</g>
<g id="a_node1_2"><a xlink:href="IDMEF_NAV_LINK_TAG?idmef_class=Impact" xlink:title="value is &quot;other&quot;. &#160;(See also Section 10.)">
<polygon fill="#ff5024" stroke="none" points="154,-157 154,-177 336,-177 336,-157 154,-157"/>
<polygon fill="none" stroke="black" points="154,-157 154,-177 336,-177 336,-157 154,-157"/>
<text text-anchor="start" x="176.5" y="-163.8" font-family="Times,serif" font-size="14.00">[ENUM] type (Optional)</text>
</a>
</g>
<g id="a_node1_3"><a xlink:href="IDMEF_NAV_LINK_TAG?idmef_class=Impact" xlink:title="Section 10.)">
<polygon fill="#ff5024" stroke="none" points="154,-137 154,-157 336,-157 336,-137 154,-137"/>
<polygon fill="none" stroke="black" points="154,-137 154,-157 336,-157 336,-137 154,-137"/>
<text text-anchor="start" x="166.5" y="-143.8" font-family="Times,serif" font-size="14.00">[ENUM] severity (Optional)</text>
</a>
</g>
</g>
<!-- Assessment -->
<g id="node2" class="node"><title>Assessment</title>
<g id="a_node2_4"><a xlink:href="IDMEF_NAV_LINK_TAG?idmef_class=Assessment" xlink:title="The Assessment class is used to provide the analyzer&#39;s assessment of an event &#45;&#45; its impact, actions taken in response, and confidence. ">
<polygon fill="#993015" stroke="none" points="8,-80 8,-101 80,-101 80,-80 8,-80"/>
<polygon fill="none" stroke="black" points="8,-80 8,-101 80,-101 80,-80 8,-80"/>
<text text-anchor="start" x="11.5" y="-87.3" font-family="Times,serif" font-size="14.00">Assessment</text>
</a>
</g>
</g>
<!-- Assessment&#45;&gt;Impact -->
<g id="edge1" class="edge"><title>Assessment&#45;&gt;Impact</title>
<path fill="none" stroke="black" d="M86.2329,-109.026C101.066,-115.511 118.566,-123.162 136.415,-130.965"/>
<polygon fill="black" stroke="black" points="135.204,-134.256 145.768,-135.055 138.008,-127.842 135.204,-134.256"/>
<text text-anchor="middle" x="117" y="-129.8" font-family="Times,serif" font-size="14.00">0..1</text>
</g>
<!-- Action -->
<g id="node3" class="node"><title>Action</title>
<g id="a_node3_5"><a xlink:href="IDMEF_NAV_LINK_TAG?idmef_class=Action" xlink:title="The Action class is used to describe any actions taken by the analyzer in response to the event. &#160;Is is represented in the IDMEF DTD as follows: ">
<polygon fill="#993015" stroke="none" points="171,-90 171,-111 320,-111 320,-90 171,-90"/>
<polygon fill="none" stroke="black" points="171,-90 171,-111 320,-111 320,-90 171,-90"/>
<text text-anchor="start" x="227" y="-97.3" font-family="Times,serif" font-size="14.00">Action</text>
</a>
</g>
<g id="a_node3_6"><a xlink:href="IDMEF_NAV_LINK_TAG?idmef_class=Action" xlink:title="The default value is &quot;other&quot;. &#160;(See also Section 10.)">
<polygon fill="#ff5024" stroke="none" points="171,-70 171,-90 320,-90 320,-70 171,-70"/>
<polygon fill="none" stroke="black" points="171,-70 171,-90 320,-90 320,-70 171,-70"/>
<text text-anchor="start" x="174.5" y="-76.8" font-family="Times,serif" font-size="14.00">[ENUM] category (None)</text>
</a>
</g>
</g>
<!-- Assessment&#45;&gt;Action -->
<g id="edge2" class="edge"><title>Assessment&#45;&gt;Action</title>
<path fill="none" stroke="black" d="M88.18,-91C107.015,-91 129.864,-91 152.193,-91"/>
<polygon fill="black" stroke="black" points="152.4,-94.5001 162.4,-91 152.4,-87.5001 152.4,-94.5001"/>
<text text-anchor="middle" x="117" y="-94.8" font-family="Times,serif" font-size="14.00">0..*</text>
</g>
<!-- Confidence -->
<g id="node4" class="node"><title>Confidence</title>
<g id="a_node4_7"><a xlink:href="IDMEF_NAV_LINK_TAG?idmef_class=Confidence" xlink:title="The Confidence class is used to represent the analyzer&#39;s best estimate of the validity of its analysis. &#160;It is represented in the IDMEF DTD as follows: ">
<polygon fill="#993015" stroke="none" points="178,-23 178,-44 312,-44 312,-23 178,-23"/>
<polygon fill="none" stroke="black" points="178,-23 178,-44 312,-44 312,-23 178,-23"/>
<text text-anchor="start" x="213.5" y="-30.3" font-family="Times,serif" font-size="14.00">Confidence</text>
</a>
</g>
<g id="a_node4_8"><a xlink:href="IDMEF_NAV_LINK_TAG?idmef_class=Confidence" xlink:title="also Section 10.)">
<polygon fill="#ff5024" stroke="none" points="178,-3 178,-23 312,-23 312,-3 178,-3"/>
<polygon fill="none" stroke="black" points="178,-3 178,-23 312,-23 312,-3 178,-3"/>
<text text-anchor="start" x="181.5" y="-9.8" font-family="Times,serif" font-size="14.00">[ENUM] rating (None)</text>
</a>
</g>
</g>
<!-- Assessment&#45;&gt;Confidence -->
<g id="edge3" class="edge"><title>Assessment&#45;&gt;Confidence</title>
<path fill="none" stroke="black" d="M88.18,-76.462C109.872,-69.1588 136.888,-60.0629 162.302,-51.5063"/>
<polygon fill="black" stroke="black" points="163.589,-54.766 171.95,-48.2581 161.356,-48.132 163.589,-54.766"/>
<text text-anchor="middle" x="117" y="-72.8" font-family="Times,serif" font-size="14.00">0..1</text>
</g>
</g>
</svg>
