<?xml version="1.0" encoding="UTF-8" standalone="no"?>
<!DOCTYPE svg PUBLIC "-//W3C//DTD SVG 1.1//EN"
 "http://www.w3.org/Graphics/SVG/1.1/DTD/svg11.dtd">
<!-- Generated by graphviz version 2.30.1 (20180420.1509)
 -->
<!-- Title: Checksum Pages: 1 -->
<svg width="200pt" height="96pt"
 viewBox="0.00 0.00 200.00 96.00" xmlns="http://www.w3.org/2000/svg" xmlns:xlink="http://www.w3.org/1999/xlink">
<g id="graph0" class="graph" transform="scale(1 1) rotate(0) translate(4 92)">
<title>Checksum</title>
<!-- Checksum -->
<g id="node1" class="node"><title>Checksum</title>
<g id="a_node1_0"><a xlink:href="IDMEF_NAV_LINK_TAG?idmef_class=Checksum" xlink:title="The Checksum class represents checksum information associated with the file. &#160;This checksum information can be provided by file integrity checkers, among others. ">
<polygon fill="#997a00" stroke="none" points="8,-63 8,-84 184,-84 184,-63 8,-63"/>
<polygon fill="none" stroke="black" points="8,-63 8,-84 184,-84 184,-63 8,-63"/>
<text text-anchor="start" x="67" y="-70.3" font-family="Times,serif" font-size="14.00">Checksum</text>
</a>
</g>
<g id="a_node1_1"><a xlink:href="IDMEF_NAV_LINK_TAG?idmef_class=Checksum" xlink:title="The value of the checksum.">
<polygon fill="#ffcc00" stroke="none" points="8,-43 8,-63 184,-63 184,-43 8,-43"/>
<polygon fill="none" stroke="black" points="8,-43 8,-63 184,-63 184,-43 8,-43"/>
<text text-anchor="start" x="40.5" y="-49.8" font-family="Times,serif" font-size="14.00">[STRING] value (1)</text>
</a>
</g>
<g id="a_node1_2"><a xlink:href="IDMEF_NAV_LINK_TAG?idmef_class=Checksum" xlink:title="The key to the checksum, if appropriate.">
<polygon fill="#ffcc00" stroke="none" points="8,-23 8,-43 184,-43 184,-23 8,-23"/>
<polygon fill="none" stroke="black" points="8,-23 8,-43 184,-43 184,-23 8,-23"/>
<text text-anchor="start" x="38.5" y="-29.8" font-family="Times,serif" font-size="14.00">[STRING] key (0..1)</text>
</a>
</g>
<g id="a_node1_3"><a xlink:href="IDMEF_NAV_LINK_TAG?idmef_class=Checksum" xlink:title="default value. &#160;(See also Section 10.)">
<polygon fill="#ffcc00" stroke="none" points="8,-3 8,-23 184,-23 184,-3 8,-3"/>
<polygon fill="none" stroke="black" points="8,-3 8,-23 184,-23 184,-3 8,-3"/>
<text text-anchor="start" x="11.5" y="-9.8" font-family="Times,serif" font-size="14.00">[ENUM] algorithm (Required)</text>
</a>
</g>
</g>
</g>
</svg>
