<?xml version="1.0" encoding="UTF-8" standalone="no"?>
<!DOCTYPE svg PUBLIC "-//W3C//DTD SVG 1.1//EN"
 "http://www.w3.org/Graphics/SVG/1.1/DTD/svg11.dtd">
<!-- Generated by graphviz version 2.30.1 (20180420.1509)
 -->
<!-- Title: FileAccess Pages: 1 -->
<svg width="396pt" height="136pt"
 viewBox="0.00 0.00 396.00 136.00" xmlns="http://www.w3.org/2000/svg" xmlns:xlink="http://www.w3.org/1999/xlink">
<g id="graph0" class="graph" transform="scale(1 1) rotate(0) translate(4 132)">
<title>FileAccess</title>
<!-- UserId -->
<g id="node1" class="node"><title>UserId</title>
<g id="a_node1_0"><a xlink:href="IDMEF_NAV_LINK_TAG?idmef_class=UserId" xlink:title="The UserId class provides specific information about a user. &#160;More than one UserId can be used within the User class to indicate attempts to transition from one user to another, or to provide complete information about a user&#39;s (or process&#39;) privileges. ">
<polygon fill="#3d7a99" stroke="none" points="224,-103 224,-124 380,-124 380,-103 224,-103"/>
<polygon fill="none" stroke="black" points="224,-103 224,-124 380,-124 380,-103 224,-103"/>
<text text-anchor="start" x="283.5" y="-110.3" font-family="Times,serif" font-size="14.00">UserId</text>
</a>
</g>
<g id="a_node1_1"><a xlink:href="IDMEF_NAV_LINK_TAG?idmef_class=UserId" xlink:title="A user or group name.">
<polygon fill="#66ccff" stroke="none" points="224,-83 224,-103 380,-103 380,-83 224,-83"/>
<polygon fill="none" stroke="black" points="224,-83 224,-103 380,-103 380,-83 224,-83"/>
<text text-anchor="start" x="239" y="-89.8" font-family="Times,serif" font-size="14.00">[STRING] name (0..1)</text>
</a>
</g>
<g id="a_node1_2"><a xlink:href="IDMEF_NAV_LINK_TAG?idmef_class=UserId" xlink:title="A user or group number.">
<polygon fill="#66ccff" stroke="none" points="224,-63 224,-83 380,-83 380,-63 224,-63"/>
<polygon fill="none" stroke="black" points="224,-63 224,-83 380,-83 380,-63 224,-63"/>
<text text-anchor="start" x="228.5" y="-69.8" font-family="Times,serif" font-size="14.00">[INTEGER] number (0..1)</text>
</a>
</g>
<g id="a_node1_3"><a xlink:href="IDMEF_NAV_LINK_TAG?idmef_class=UserId" xlink:title="The tty the user is using.">
<polygon fill="#66ccff" stroke="none" points="224,-43 224,-63 380,-63 380,-43 224,-43"/>
<polygon fill="none" stroke="black" points="224,-43 224,-63 380,-63 380,-43 224,-43"/>
<text text-anchor="start" x="234" y="-49.8" font-family="Times,serif" font-size="14.00">[STRING] tty (Optional)</text>
</a>
</g>
<g id="a_node1_4"><a xlink:href="IDMEF_NAV_LINK_TAG?idmef_class=UserId" xlink:title="A unique identifier for the user id, see Section 3.2.9.">
<polygon fill="#66ccff" stroke="none" points="224,-23 224,-43 380,-43 380,-23 224,-23"/>
<polygon fill="none" stroke="black" points="224,-23 224,-43 380,-43 380,-23 224,-23"/>
<text text-anchor="start" x="227.5" y="-29.8" font-family="Times,serif" font-size="14.00">[STRING] ident (Optional)</text>
</a>
</g>
<g id="a_node1_5"><a xlink:href="IDMEF_NAV_LINK_TAG?idmef_class=UserId" xlink:title="The type of user information represented. &#160;The permitted values for this attribute are shown below. &#160;The default value is &quot;original&#45;user&quot;. &#160;(See also Section 10.)">
<polygon fill="#66ccff" stroke="none" points="224,-3 224,-23 380,-23 380,-3 224,-3"/>
<polygon fill="none" stroke="black" points="224,-3 224,-23 380,-23 380,-3 224,-3"/>
<text text-anchor="start" x="233.5" y="-9.8" font-family="Times,serif" font-size="14.00">[ENUM] type (Optional)</text>
</a>
</g>
</g>
<!-- FileAccess -->
<g id="node2" class="node"><title>FileAccess</title>
<g id="a_node2_6"><a xlink:href="IDMEF_NAV_LINK_TAG?idmef_class=FileAccess" xlink:title="The FileAccess class represents the access permissions on a file. The representation is intended to be useful across operating systems. ">
<polygon fill="#997a00" stroke="none" points="9,-63 9,-84 164,-84 164,-63 9,-63"/>
<polygon fill="none" stroke="black" points="9,-63 9,-84 164,-84 164,-63 9,-63"/>
<text text-anchor="start" x="56.5" y="-70.3" font-family="Times,serif" font-size="14.00">FileAccess</text>
</a>
</g>
<g id="a_node2_7"><a xlink:href="IDMEF_NAV_LINK_TAG?idmef_class=FileAccess" xlink:title="Level of access allowed. &#160;The permitted values are shown below. &#160;There is no default value. &#160;(See also Section 10.)">
<polygon fill="#ffcc00" stroke="none" points="9,-43 9,-63 164,-63 164,-43 9,-43"/>
<polygon fill="none" stroke="black" points="9,-43 9,-63 164,-63 164,-43 9,-43"/>
<text text-anchor="start" x="12.5" y="-49.8" font-family="Times,serif" font-size="14.00">[ENUM] Permission (1..*)</text>
</a>
</g>
</g>
<!-- FileAccess&#45;&gt;UserId -->
<g id="edge1" class="edge"><title>FileAccess&#45;&gt;UserId</title>
<path fill="none" stroke="black" d="M171.578,-64C182.874,-64 194.518,-64 205.976,-64"/>
<polygon fill="black" stroke="black" points="205.984,-67.5001 215.984,-64 205.984,-60.5001 205.984,-67.5001"/>
<text text-anchor="middle" x="194" y="-67.8" font-family="Times,serif" font-size="14.00">1</text>
</g>
</g>
</svg>
