<?xml version="1.0" encoding="UTF-8" standalone="no"?>
<!DOCTYPE svg PUBLIC "-//W3C//DTD SVG 1.1//EN"
 "http://www.w3.org/Graphics/SVG/1.1/DTD/svg11.dtd">
<!-- Generated by graphviz version 2.30.1 (20180420.1509)
 -->
<!-- Title: Heartbeat Pages: 1 -->
<svg width="1014pt" height="406pt"
 viewBox="0.00 0.00 1014.00 406.00" xmlns="http://www.w3.org/2000/svg" xmlns:xlink="http://www.w3.org/1999/xlink">
<g id="graph0" class="graph" transform="scale(1 1) rotate(0) translate(4 402)">
<title>Heartbeat</title>
<!-- AdditionalData -->
<g id="node1" class="node"><title>AdditionalData</title>
<g id="a_node1_0"><a xlink:href="IDMEF_NAV_LINK_TAG?idmef_class=AdditionalData" xlink:title="The AdditionalData class is used to provide information that cannot be represented by the data model. &#160;AdditionalData can be used to provide atomic data (integers, strings, etc.) in cases where only small amounts of additional information need to be sent; it can also be used to extend the data model and the DTD to support the transmission of complex data (such as packet headers). &#160;Detailed instructions for extending the data model and the DTD are provided in Section 5. ">
<polygon fill="#431c60" stroke="none" points="301,-373 301,-394 477,-394 477,-373 301,-373"/>
<polygon fill="none" stroke="black" points="301,-373 301,-394 477,-394 477,-373 301,-373"/>
<text text-anchor="start" x="347" y="-380.3" font-family="Times,serif" font-size="14.00">AdditionalData</text>
</a>
</g>
<g id="a_node1_1"><a xlink:href="IDMEF_NAV_LINK_TAG?idmef_class=AdditionalData" xlink:title="A string describing the meaning of the element content. These values will be vendor/implementation dependent; the method for ensuring that managers understand the strings sent by analyzers is outside the scope of this specification. &#160;A list of acceptable meaning keywords is not within the scope of the document, although later versions may undertake to establish such a list.">
<polygon fill="#7030a0" stroke="none" points="301,-353 301,-373 477,-373 477,-353 301,-353"/>
<polygon fill="none" stroke="black" points="301,-353 301,-373 477,-373 477,-353 301,-353"/>
<text text-anchor="start" x="304.5" y="-359.8" font-family="Times,serif" font-size="14.00">[STRING] meaning (Optional)</text>
</a>
</g>
</g>
<!-- Heartbeat -->
<g id="node2" class="node"><title>Heartbeat</title>
<g id="a_node2_2"><a xlink:href="IDMEF_NAV_LINK_TAG?idmef_class=Heartbeat" xlink:title="Analyzers use Heartbeat messages to indicate their current status to managers. &#160;Heartbeats are intended to be sent in a regular period, say, every ten minutes or every hour. &#160;The receipt of a Heartbeat message from an analyzer indicates to the manager that the analyzer is up and running; lack of a Heartbeat message (or more likely, lack of some number of consecutive Heartbeat messages) indicates that the analyzer or its network connection has failed. ">
<polygon fill="#587600" stroke="none" points="8,-271 8,-292 214,-292 214,-271 8,-271"/>
<polygon fill="none" stroke="black" points="8,-271 8,-292 214,-292 214,-271 8,-271"/>
<text text-anchor="start" x="84.5" y="-278.3" font-family="Times,serif" font-size="14.00">Heartbeat</text>
</a>
</g>
<g id="a_node2_3"><a xlink:href="IDMEF_NAV_LINK_TAG?idmef_class=Heartbeat" xlink:title="The interval in seconds at which heartbeats are generated.">
<polygon fill="#94c600" stroke="none" points="8,-251 8,-271 214,-271 214,-251 8,-251"/>
<polygon fill="none" stroke="black" points="8,-251 8,-271 214,-271 214,-251 8,-251"/>
<text text-anchor="start" x="11.5" y="-257.8" font-family="Times,serif" font-size="14.00">[INTEGER] HeartbeatInterval (0..1)</text>
</a>
</g>
<g id="a_node2_4"><a xlink:href="IDMEF_NAV_LINK_TAG?idmef_class=Heartbeat" xlink:title="A unique identifier for the heartbeat; see Section 3.2.9.">
<polygon fill="#94c600" stroke="none" points="8,-231 8,-251 214,-251 214,-231 8,-231"/>
<polygon fill="none" stroke="black" points="8,-231 8,-251 214,-251 214,-231 8,-231"/>
<text text-anchor="start" x="21.5" y="-237.8" font-family="Times,serif" font-size="14.00">[STRING] messageid (Optional)</text>
</a>
</g>
</g>
<!-- Heartbeat&#45;&gt;AdditionalData -->
<g id="edge1" class="edge"><title>Heartbeat&#45;&gt;AdditionalData</title>
<path fill="none" stroke="black" d="M180.605,-296.306C210.714,-310.72 246.719,-327.098 280,-340 285.518,-342.139 291.233,-344.246 297.021,-346.297"/>
<polygon fill="black" stroke="black" points="296.214,-349.722 306.809,-349.695 298.509,-343.109 296.214,-349.722"/>
<text text-anchor="middle" x="251" y="-335.8" font-family="Times,serif" font-size="14.00">0..*</text>
</g>
<!-- CreateTime -->
<g id="node3" class="node"><title>CreateTime</title>
<g id="a_node3_5"><a xlink:href="IDMEF_NAV_LINK_TAG?idmef_class=CreateTime" xlink:title="The CreateTime class is used to indicate the date and time the alert or heartbeat was created by the analyzer. ">
<polygon fill="#5b5b99" stroke="none" points="353,-302 353,-323 425,-323 425,-302 353,-302"/>
<polygon fill="none" stroke="black" points="353,-302 353,-323 425,-323 425,-302 353,-302"/>
<text text-anchor="start" x="356.5" y="-309.3" font-family="Times,serif" font-size="14.00">CreateTime</text>
</a>
</g>
</g>
<!-- Heartbeat&#45;&gt;CreateTime -->
<g id="edge2" class="edge"><title>Heartbeat&#45;&gt;CreateTime</title>
<path fill="none" stroke="black" d="M222.272,-282.376C261.022,-289.537 302.813,-297.259 334.735,-303.158"/>
<polygon fill="black" stroke="black" points="334.267,-306.63 344.736,-305.006 335.539,-299.747 334.267,-306.63"/>
<text text-anchor="middle" x="251" y="-293.8" font-family="Times,serif" font-size="14.00">1</text>
</g>
<!-- Analyzer -->
<g id="node6" class="node"><title>Analyzer</title>
<g id="a_node6_6"><a xlink:href="IDMEF_NAV_LINK_TAG?idmef_class=Analyzer" xlink:title="The Analyzer class identifies the analyzer from which the Alert or Heartbeat message originates. &#160;Only one analyzer may be encoded for each alert or heartbeat, and that MUST be the analyzer at which the alert or heartbeat originated. &#160;Although the IDMEF data model does not prevent the use of hierarchical intrusion detection systems (where alerts get relayed up the tree), it does not provide any way to record the identity of the &quot;relay&quot; analyzers along the path from the originating analyzer to the manager that ultimately receives the alert. ">
<polygon fill="#99993d" stroke="none" points="288,-218 288,-239 490,-239 490,-218 288,-218"/>
<polygon fill="none" stroke="black" points="288,-218 288,-239 490,-239 490,-218 288,-218"/>
<text text-anchor="start" x="364" y="-225.3" font-family="Times,serif" font-size="14.00">Analyzer</text>
</a>
</g>
<g id="a_node6_7"><a xlink:href="IDMEF_NAV_LINK_TAG?idmef_class=Analyzer" xlink:title="An explicit name for the analyzer that may be easier to understand than the analyzerid.">
<polygon fill="#ffff66" stroke="none" points="288,-198 288,-218 490,-218 490,-198 288,-198"/>
<polygon fill="none" stroke="black" points="288,-198 288,-218 490,-218 490,-198 288,-198"/>
<text text-anchor="start" x="313" y="-204.8" font-family="Times,serif" font-size="14.00">[STRING] name (Optional)</text>
</a>
</g>
<g id="a_node6_8"><a xlink:href="IDMEF_NAV_LINK_TAG?idmef_class=Analyzer" xlink:title="The version number of the analyzer software and/or hardware.">
<polygon fill="#ffff66" stroke="none" points="288,-178 288,-198 490,-198 490,-178 288,-178"/>
<polygon fill="none" stroke="black" points="288,-178 288,-198 490,-198 490,-178 288,-178"/>
<text text-anchor="start" x="308" y="-184.8" font-family="Times,serif" font-size="14.00">[STRING] version (Optional)</text>
</a>
</g>
<g id="a_node6_9"><a xlink:href="IDMEF_NAV_LINK_TAG?idmef_class=Analyzer" xlink:title="Operating system name. &#160;On POSIX 1003.1 compliant systems, this is the value returned in utsname.sysname by the uname() system call, or the output of the &quot;uname &#45;s&quot; command.">
<polygon fill="#ffff66" stroke="none" points="288,-158 288,-178 490,-178 490,-158 288,-158"/>
<polygon fill="none" stroke="black" points="288,-158 288,-178 490,-178 490,-158 288,-158"/>
<text text-anchor="start" x="310.5" y="-164.8" font-family="Times,serif" font-size="14.00">[STRING] ostype (Optional)</text>
</a>
</g>
<g id="a_node6_10"><a xlink:href="IDMEF_NAV_LINK_TAG?idmef_class=Analyzer" xlink:title="The model name/number of the analyzer software and/or hardware.">
<polygon fill="#ffff66" stroke="none" points="288,-138 288,-158 490,-158 490,-138 288,-138"/>
<polygon fill="none" stroke="black" points="288,-138 288,-158 490,-158 490,-138 288,-138"/>
<text text-anchor="start" x="310.5" y="-144.8" font-family="Times,serif" font-size="14.00">[STRING] model (Optional)</text>
</a>
</g>
<g id="a_node6_11"><a xlink:href="IDMEF_NAV_LINK_TAG?idmef_class=Analyzer" xlink:title="Operating system version. &#160;On POSIX 1003.1 compliant systems, this is the value returned in utsname.release by the uname() system call, or the output of the &quot;uname &#45;r&quot; command.">
<polygon fill="#ffff66" stroke="none" points="288,-118 288,-138 490,-138 490,-118 288,-118"/>
<polygon fill="none" stroke="black" points="288,-118 288,-138 490,-138 490,-118 288,-118"/>
<text text-anchor="start" x="302" y="-124.8" font-family="Times,serif" font-size="14.00">[STRING] osversion (Optional)</text>
</a>
</g>
<g id="a_node6_12"><a xlink:href="IDMEF_NAV_LINK_TAG?idmef_class=Analyzer" xlink:title="The class of analyzer software and/or hardware.">
<polygon fill="#ffff66" stroke="none" points="288,-98 288,-118 490,-118 490,-98 288,-98"/>
<polygon fill="none" stroke="black" points="288,-98 288,-118 490,-118 490,-98 288,-98"/>
<text text-anchor="start" x="315" y="-104.8" font-family="Times,serif" font-size="14.00">[STRING] class (Optional)</text>
</a>
</g>
<g id="a_node6_13"><a xlink:href="IDMEF_NAV_LINK_TAG?idmef_class=Analyzer" xlink:title="The manufacturer of the analyzer software and/or hardware.">
<polygon fill="#ffff66" stroke="none" points="288,-78 288,-98 490,-98 490,-78 288,-78"/>
<polygon fill="none" stroke="black" points="288,-78 288,-98 490,-98 490,-78 288,-78"/>
<text text-anchor="start" x="291.5" y="-84.8" font-family="Times,serif" font-size="14.00">[STRING] manufacturer (Optional)</text>
</a>
</g>
<g id="a_node6_14"><a xlink:href="IDMEF_NAV_LINK_TAG?idmef_class=Analyzer" xlink:title="(but see below). &#160;A unique identifier for the analyzer; see Section 3.2.9.">
<polygon fill="#ffff66" stroke="none" points="288,-58 288,-78 490,-78 490,-58 288,-58"/>
<polygon fill="none" stroke="black" points="288,-58 288,-78 490,-78 490,-58 288,-58"/>
<text text-anchor="start" x="300" y="-64.8" font-family="Times,serif" font-size="14.00">[STRING] analyzerid (Optional)</text>
</a>
</g>
</g>
<!-- Heartbeat&#45;&gt;Analyzer -->
<g id="edge7" class="edge"><title>Heartbeat&#45;&gt;Analyzer</title>
<path fill="none" stroke="black" d="M195.933,-227.636C219.418,-218.021 245.385,-207.39 270.433,-197.134"/>
<polygon fill="black" stroke="black" points="272.053,-200.253 279.981,-193.225 269.4,-193.775 272.053,-200.253"/>
<text text-anchor="middle" x="251" y="-212.8" font-family="Times,serif" font-size="14.00">1</text>
</g>
<!-- AnalyzerTime -->
<g id="node8" class="node"><title>AnalyzerTime</title>
<g id="a_node8_15"><a xlink:href="IDMEF_NAV_LINK_TAG?idmef_class=AnalyzerTime" xlink:title="The AnalyzerTime class is used to indicate the current date and time on the analyzer. &#160;Its values should be filled in as late as possible in the message transmission process, ideally immediately before placing the message &quot;on the wire&quot;. ">
<polygon fill="#5b5b99" stroke="none" points="346,-7 346,-28 432,-28 432,-7 346,-7"/>
<polygon fill="none" stroke="black" points="346,-7 346,-28 432,-28 432,-7 346,-7"/>
<text text-anchor="start" x="349.5" y="-14.3" font-family="Times,serif" font-size="14.00">AnalyzerTime</text>
</a>
</g>
</g>
<!-- Heartbeat&#45;&gt;AnalyzerTime -->
<g id="edge8" class="edge"><title>Heartbeat&#45;&gt;AnalyzerTime</title>
<path fill="none" stroke="black" d="M129.073,-227.57C154.908,-179.143 208.593,-91.6293 280,-45 294.205,-35.724 311.367,-29.6348 327.787,-25.6376"/>
<polygon fill="black" stroke="black" points="328.872,-28.9825 337.883,-23.4093 327.363,-22.147 328.872,-28.9825"/>
<text text-anchor="middle" x="251" y="-76.8" font-family="Times,serif" font-size="14.00">0..1</text>
</g>
<!-- Address -->
<g id="node4" class="node"><title>Address</title>
<g id="a_node4_16"><a xlink:href="IDMEF_NAV_LINK_TAG?idmef_class=Address" xlink:title="The Address class is used to represent network, hardware, and application addresses. ">
<polygon fill="#007a00" stroke="none" points="807,-326 807,-347 998,-347 998,-326 807,-326"/>
<polygon fill="none" stroke="black" points="807,-326 807,-347 998,-347 998,-326 807,-326"/>
<text text-anchor="start" x="880" y="-333.3" font-family="Times,serif" font-size="14.00">Address</text>
</a>
</g>
<g id="a_node4_17"><a xlink:href="IDMEF_NAV_LINK_TAG?idmef_class=Address" xlink:title="The network mask for the address, if appropriate.">
<polygon fill="#00cc00" stroke="none" points="807,-306 807,-326 998,-326 998,-306 807,-306"/>
<polygon fill="none" stroke="black" points="807,-306 807,-326 998,-326 998,-306 807,-306"/>
<text text-anchor="start" x="831.5" y="-312.8" font-family="Times,serif" font-size="14.00">[STRING] netmask (0..1)</text>
</a>
</g>
<g id="a_node4_18"><a xlink:href="IDMEF_NAV_LINK_TAG?idmef_class=Address" xlink:title="The address information. &#160;The format of this data is governed by the category attribute.">
<polygon fill="#00cc00" stroke="none" points="807,-286 807,-306 998,-306 998,-286 807,-286"/>
<polygon fill="none" stroke="black" points="807,-286 807,-306 998,-306 998,-286 807,-286"/>
<text text-anchor="start" x="841.5" y="-292.8" font-family="Times,serif" font-size="14.00">[STRING] address (1)</text>
</a>
</g>
<g id="a_node4_19"><a xlink:href="IDMEF_NAV_LINK_TAG?idmef_class=Address" xlink:title="The type of address represented. &#160;The permitted values for this attribute are shown below. &#160;The default value is &quot;unknown&quot;. &#160;(See also Section 10.)">
<polygon fill="#00cc00" stroke="none" points="807,-266 807,-286 998,-286 998,-266 807,-266"/>
<polygon fill="none" stroke="black" points="807,-266 807,-286 998,-286 998,-266 807,-266"/>
<text text-anchor="start" x="822.5" y="-272.8" font-family="Times,serif" font-size="14.00">[ENUM] category (Optional)</text>
</a>
</g>
<g id="a_node4_20"><a xlink:href="IDMEF_NAV_LINK_TAG?idmef_class=Address" xlink:title="The name of the Virtual LAN to which the address belongs.">
<polygon fill="#00cc00" stroke="none" points="807,-246 807,-266 998,-266 998,-246 807,-246"/>
<polygon fill="none" stroke="black" points="807,-246 807,-266 998,-266 998,-246 807,-246"/>
<text text-anchor="start" x="812.5" y="-252.8" font-family="Times,serif" font-size="14.00">[STRING] vlan&#45;name (Optional)</text>
</a>
</g>
<g id="a_node4_21"><a xlink:href="IDMEF_NAV_LINK_TAG?idmef_class=Address" xlink:title="The number of the Virtual LAN to which the address belongs.">
<polygon fill="#00cc00" stroke="none" points="807,-226 807,-246 998,-246 998,-226 807,-226"/>
<polygon fill="none" stroke="black" points="807,-226 807,-246 998,-246 998,-226 807,-226"/>
<text text-anchor="start" x="810.5" y="-232.8" font-family="Times,serif" font-size="14.00">[INTEGER] vlan&#45;num (Optional)</text>
</a>
</g>
<g id="a_node4_22"><a xlink:href="IDMEF_NAV_LINK_TAG?idmef_class=Address" xlink:title="A unique identifier for the address; see Section 3.2.9.">
<polygon fill="#00cc00" stroke="none" points="807,-206 807,-226 998,-226 998,-206 807,-206"/>
<polygon fill="none" stroke="black" points="807,-206 807,-226 998,-226 998,-206 807,-206"/>
<text text-anchor="start" x="828" y="-212.8" font-family="Times,serif" font-size="14.00">[STRING] ident (Optional)</text>
</a>
</g>
</g>
<!-- Node -->
<g id="node5" class="node"><title>Node</title>
<g id="a_node5_23"><a xlink:href="IDMEF_NAV_LINK_TAG?idmef_class=Node" xlink:title="The Node class is used to identify hosts and other network devices (routers, switches, etc.). ">
<polygon fill="#007a00" stroke="none" points="565,-306 565,-327 732,-327 732,-306 565,-306"/>
<polygon fill="none" stroke="black" points="565,-306 565,-327 732,-327 732,-306 565,-306"/>
<text text-anchor="start" x="633.5" y="-313.3" font-family="Times,serif" font-size="14.00">Node</text>
</a>
</g>
<g id="a_node5_24"><a xlink:href="IDMEF_NAV_LINK_TAG?idmef_class=Node" xlink:title="The location of the equipment.">
<polygon fill="#00cc00" stroke="none" points="565,-286 565,-306 732,-306 732,-286 565,-286"/>
<polygon fill="none" stroke="black" points="565,-286 565,-306 732,-306 732,-286 565,-286"/>
<text text-anchor="start" x="579" y="-292.8" font-family="Times,serif" font-size="14.00">[STRING] location (0..1)</text>
</a>
</g>
<g id="a_node5_25"><a xlink:href="IDMEF_NAV_LINK_TAG?idmef_class=Node" xlink:title="The name of the equipment. &#160;This information MUST be provided if no Address information is given.">
<polygon fill="#00cc00" stroke="none" points="565,-266 565,-286 732,-286 732,-266 565,-266"/>
<polygon fill="none" stroke="black" points="565,-266 565,-286 732,-286 732,-266 565,-266"/>
<text text-anchor="start" x="585.5" y="-272.8" font-family="Times,serif" font-size="14.00">[STRING] name (0..1)</text>
</a>
</g>
<g id="a_node5_26"><a xlink:href="IDMEF_NAV_LINK_TAG?idmef_class=Node" xlink:title="The &quot;domain&quot; from which the name information was obtained, if relevant. &#160;The permitted values for this attribute are shown in the table below. &#160;The default value is &quot;unknown&quot;. (See also Section 10 for extensions to the table.)">
<polygon fill="#00cc00" stroke="none" points="565,-246 565,-266 732,-266 732,-246 565,-246"/>
<polygon fill="none" stroke="black" points="565,-246 565,-266 732,-266 732,-246 565,-246"/>
<text text-anchor="start" x="568.5" y="-252.8" font-family="Times,serif" font-size="14.00">[ENUM] category (Optional)</text>
</a>
</g>
<g id="a_node5_27"><a xlink:href="IDMEF_NAV_LINK_TAG?idmef_class=Node" xlink:title="A unique identifier for the node; see Section 3.2.9.">
<polygon fill="#00cc00" stroke="none" points="565,-226 565,-246 732,-246 732,-226 565,-226"/>
<polygon fill="none" stroke="black" points="565,-226 565,-246 732,-246 732,-226 565,-226"/>
<text text-anchor="start" x="574" y="-232.8" font-family="Times,serif" font-size="14.00">[STRING] ident (Optional)</text>
</a>
</g>
</g>
<!-- Node&#45;&gt;Address -->
<g id="edge3" class="edge"><title>Node&#45;&gt;Address</title>
<path fill="none" stroke="black" d="M739.622,-277C755.397,-277 771.977,-277 788.259,-277"/>
<polygon fill="black" stroke="black" points="788.348,-280.5 798.348,-277 788.348,-273.5 788.348,-280.5"/>
<text text-anchor="middle" x="769" y="-280.8" font-family="Times,serif" font-size="14.00">0..*</text>
</g>
<!-- Analyzer&#45;&gt;Node -->
<g id="edge4" class="edge"><title>Analyzer&#45;&gt;Node</title>
<path fill="none" stroke="black" d="M498.246,-202.913C514.415,-210.966 531.023,-219.237 547.011,-227.2"/>
<polygon fill="black" stroke="black" points="545.833,-230.523 556.345,-231.849 548.954,-224.258 545.833,-230.523"/>
<text text-anchor="middle" x="527" y="-224.8" font-family="Times,serif" font-size="14.00">0..1</text>
</g>
<!-- Process -->
<g id="node7" class="node"><title>Process</title>
<g id="a_node7_28"><a xlink:href="IDMEF_NAV_LINK_TAG?idmef_class=Process" xlink:title="The Process class is used to describe processes being executed on sources, targets, and analyzers. ">
<polygon fill="#997a3d" stroke="none" points="570,-179 570,-200 726,-200 726,-179 570,-179"/>
<polygon fill="none" stroke="black" points="570,-179 570,-200 726,-200 726,-179 570,-179"/>
<text text-anchor="start" x="627" y="-186.3" font-family="Times,serif" font-size="14.00">Process</text>
</a>
</g>
<g id="a_node7_29"><a xlink:href="IDMEF_NAV_LINK_TAG?idmef_class=Process" xlink:title="The full path of the program being executed.">
<polygon fill="#ffcc66" stroke="none" points="570,-159 570,-179 726,-179 726,-159 570,-159"/>
<polygon fill="none" stroke="black" points="570,-159 570,-179 726,-179 726,-159 570,-159"/>
<text text-anchor="start" x="588.5" y="-165.8" font-family="Times,serif" font-size="14.00">[STRING] path (0..1)</text>
</a>
</g>
<g id="a_node7_30"><a xlink:href="IDMEF_NAV_LINK_TAG?idmef_class=Process" xlink:title="The process identifier of the process.">
<polygon fill="#ffcc66" stroke="none" points="570,-139 570,-159 726,-159 726,-139 570,-139"/>
<polygon fill="none" stroke="black" points="570,-139 570,-159 726,-159 726,-139 570,-139"/>
<text text-anchor="start" x="587" y="-145.8" font-family="Times,serif" font-size="14.00">[INTEGER] pid (0..1)</text>
</a>
</g>
<g id="a_node7_31"><a xlink:href="IDMEF_NAV_LINK_TAG?idmef_class=Process" xlink:title="The name of the program being executed. This is a short name; path and argument information are provided elsewhere.">
<polygon fill="#ffcc66" stroke="none" points="570,-119 570,-139 726,-139 726,-119 570,-119"/>
<polygon fill="none" stroke="black" points="570,-119 570,-139 726,-139 726,-119 570,-119"/>
<text text-anchor="start" x="592" y="-125.8" font-family="Times,serif" font-size="14.00">[STRING] name (1)</text>
</a>
</g>
<g id="a_node7_32"><a xlink:href="IDMEF_NAV_LINK_TAG?idmef_class=Process" xlink:title="An environment string associated with the process; generally of the format &quot;VARIABLE=value&quot;. &#160;Multiple environment strings may be specified with multiple uses of env.">
<polygon fill="#ffcc66" stroke="none" points="570,-99 570,-119 726,-119 726,-99 570,-99"/>
<polygon fill="none" stroke="black" points="570,-99 570,-119 726,-119 726,-99 570,-99"/>
<text text-anchor="start" x="590.5" y="-105.8" font-family="Times,serif" font-size="14.00">[STRING] env (0..*)</text>
</a>
</g>
<g id="a_node7_33"><a xlink:href="IDMEF_NAV_LINK_TAG?idmef_class=Process" xlink:title="A command&#45;line argument to the program. Multiple arguments may be specified (they are assumed to have occurred in the same order they are provided) with multiple uses of arg.">
<polygon fill="#ffcc66" stroke="none" points="570,-79 570,-99 726,-99 726,-79 570,-79"/>
<polygon fill="none" stroke="black" points="570,-79 570,-99 726,-99 726,-79 570,-79"/>
<text text-anchor="start" x="591.5" y="-85.8" font-family="Times,serif" font-size="14.00">[STRING] arg (0..*)</text>
</a>
</g>
<g id="a_node7_34"><a xlink:href="IDMEF_NAV_LINK_TAG?idmef_class=Process" xlink:title="A unique identifier for the process; see Section 3.2.9.">
<polygon fill="#ffcc66" stroke="none" points="570,-59 570,-79 726,-79 726,-59 570,-59"/>
<polygon fill="none" stroke="black" points="570,-59 570,-79 726,-79 726,-59 570,-59"/>
<text text-anchor="start" x="573.5" y="-65.8" font-family="Times,serif" font-size="14.00">[STRING] ident (Optional)</text>
</a>
</g>
</g>
<!-- Analyzer&#45;&gt;Process -->
<g id="edge5" class="edge"><title>Analyzer&#45;&gt;Process</title>
<path fill="none" stroke="black" d="M498.246,-140.997C516.021,-139.683 534.326,-138.33 551.754,-137.042"/>
<polygon fill="black" stroke="black" points="552.189,-140.519 561.904,-136.291 551.673,-133.538 552.189,-140.519"/>
<text text-anchor="middle" x="527" y="-143.8" font-family="Times,serif" font-size="14.00">0..1</text>
</g>
<!-- Analyzer&#45;&gt;Analyzer -->
<g id="edge6" class="edge"><title>Analyzer&#45;&gt;Analyzer</title>
<path fill="none" stroke="black" d="M367.073,-243.373C371.179,-254.068 378.488,-261 389,-261 396.227,-261 401.94,-257.724 406.139,-252.201"/>
<polygon fill="black" stroke="black" points="409.236,-253.832 410.927,-243.373 403.082,-250.495 409.236,-253.832"/>
<text text-anchor="middle" x="389" y="-264.8" font-family="Times,serif" font-size="14.00">0..1</text>
</g>
</g>
</svg>
