<?xml version="1.0" encoding="UTF-8" standalone="no"?>
<!DOCTYPE svg PUBLIC "-//W3C//DTD SVG 1.1//EN"
 "http://www.w3.org/Graphics/SVG/1.1/DTD/svg11.dtd">
<!-- Generated by graphviz version 2.30.1 (20180420.1509)
 -->
<!-- Title: Impact Pages: 1 -->
<svg width="206pt" height="96pt"
 viewBox="0.00 0.00 206.00 96.00" xmlns="http://www.w3.org/2000/svg" xmlns:xlink="http://www.w3.org/1999/xlink">
<g id="graph0" class="graph" transform="scale(1 1) rotate(0) translate(4 92)">
<title>Impact</title>
<!-- Impact -->
<g id="node1" class="node"><title>Impact</title>
<g id="a_node1_0"><a xlink:href="IDMEF_NAV_LINK_TAG?idmef_class=Impact" xlink:title="The Impact class is used to provide the analyzer&#39;s assessment of the impact of the event on the target(s). &#160;It is represented in the IDMEF DTD as follows: ">
<polygon fill="#993015" stroke="none" points="8,-63 8,-84 190,-84 190,-63 8,-63"/>
<polygon fill="none" stroke="black" points="8,-63 8,-84 190,-84 190,-63 8,-63"/>
<text text-anchor="start" x="79.5" y="-70.3" font-family="Times,serif" font-size="14.00">Impact</text>
</a>
</g>
<g id="a_node1_1"><a xlink:href="IDMEF_NAV_LINK_TAG?idmef_class=Impact" xlink:title="Section 10.)">
<polygon fill="#ff5024" stroke="none" points="8,-43 8,-63 190,-63 190,-43 8,-43"/>
<polygon fill="none" stroke="black" points="8,-43 8,-63 190,-63 190,-43 8,-43"/>
<text text-anchor="start" x="11.5" y="-49.8" font-family="Times,serif" font-size="14.00">[ENUM] completion (Optional)</text>
</a>
</g>
<g id="a_node1_2"><a xlink:href="IDMEF_NAV_LINK_TAG?idmef_class=Impact" xlink:title="value is &quot;other&quot;. &#160;(See also Section 10.)">
<polygon fill="#ff5024" stroke="none" points="8,-23 8,-43 190,-43 190,-23 8,-23"/>
<polygon fill="none" stroke="black" points="8,-23 8,-43 190,-43 190,-23 8,-23"/>
<text text-anchor="start" x="30.5" y="-29.8" font-family="Times,serif" font-size="14.00">[ENUM] type (Optional)</text>
</a>
</g>
<g id="a_node1_3"><a xlink:href="IDMEF_NAV_LINK_TAG?idmef_class=Impact" xlink:title="Section 10.)">
<polygon fill="#ff5024" stroke="none" points="8,-3 8,-23 190,-23 190,-3 8,-3"/>
<polygon fill="none" stroke="black" points="8,-3 8,-23 190,-23 190,-3 8,-3"/>
<text text-anchor="start" x="20.5" y="-9.8" font-family="Times,serif" font-size="14.00">[ENUM] severity (Optional)</text>
</a>
</g>
</g>
</g>
</svg>
