<?xml version="1.0" encoding="UTF-8" standalone="no"?>
<!DOCTYPE svg PUBLIC "-//W3C//DTD SVG 1.1//EN"
 "http://www.w3.org/Graphics/SVG/1.1/DTD/svg11.dtd">
<!-- Generated by graphviz version 2.30.1 (20180420.1509)
 -->
<!-- Title: Inode Pages: 1 -->
<svg width="220pt" height="156pt"
 viewBox="0.00 0.00 220.00 156.00" xmlns="http://www.w3.org/2000/svg" xmlns:xlink="http://www.w3.org/1999/xlink">
<g id="graph0" class="graph" transform="scale(1 1) rotate(0) translate(4 152)">
<title>Inode</title>
<!-- Inode -->
<g id="node1" class="node"><title>Inode</title>
<g id="a_node1_0"><a xlink:href="IDMEF_NAV_LINK_TAG?idmef_class=Inode" xlink:title="The Inode class is used to represent the additional information contained in a Unix file system i&#45;node. ">
<polygon fill="#997a00" stroke="none" points="9,-123 9,-144 204,-144 204,-123 9,-123"/>
<polygon fill="none" stroke="black" points="9,-123 9,-144 204,-144 204,-123 9,-123"/>
<text text-anchor="start" x="91" y="-130.3" font-family="Times,serif" font-size="14.00">Inode</text>
</a>
</g>
<g id="a_node1_1"><a xlink:href="IDMEF_NAV_LINK_TAG?idmef_class=Inode" xlink:title="The minor device of the file itself, if it is a character special device.">
<polygon fill="#ffcc00" stroke="none" points="9,-103 9,-123 204,-123 204,-103 9,-103"/>
<polygon fill="none" stroke="black" points="9,-103 9,-123 204,-123 204,-103 9,-103"/>
<text text-anchor="start" x="12.5" y="-109.8" font-family="Times,serif" font-size="14.00">[INTEGER] c&#45;minor&#45;device (0..1)</text>
</a>
</g>
<g id="a_node1_2"><a xlink:href="IDMEF_NAV_LINK_TAG?idmef_class=Inode" xlink:title="The time of the last inode change, given by the st_ctime element of &quot;struct stat&quot;.">
<polygon fill="#ffcc00" stroke="none" points="9,-83 9,-103 204,-103 204,-83 9,-83"/>
<polygon fill="none" stroke="black" points="9,-83 9,-103 204,-103 204,-83 9,-83"/>
<text text-anchor="start" x="14.5" y="-89.8" font-family="Times,serif" font-size="14.00">[DATETIME] change&#45;time (0..1)</text>
</a>
</g>
<g id="a_node1_3"><a xlink:href="IDMEF_NAV_LINK_TAG?idmef_class=Inode" xlink:title="The minor device number of the device the file resides on.">
<polygon fill="#ffcc00" stroke="none" points="9,-63 9,-83 204,-83 204,-63 9,-63"/>
<polygon fill="none" stroke="black" points="9,-63 9,-83 204,-83 204,-63 9,-63"/>
<text text-anchor="start" x="17.5" y="-69.8" font-family="Times,serif" font-size="14.00">[INTEGER] minor&#45;device (0..1)</text>
</a>
</g>
<g id="a_node1_4"><a xlink:href="IDMEF_NAV_LINK_TAG?idmef_class=Inode" xlink:title="The major device number of the device the file resides on.">
<polygon fill="#ffcc00" stroke="none" points="9,-43 9,-63 204,-63 204,-43 9,-43"/>
<polygon fill="none" stroke="black" points="9,-43 9,-63 204,-63 204,-43 9,-43"/>
<text text-anchor="start" x="18" y="-49.8" font-family="Times,serif" font-size="14.00">[INTEGER] major&#45;device (0..1)</text>
</a>
</g>
<g id="a_node1_5"><a xlink:href="IDMEF_NAV_LINK_TAG?idmef_class=Inode" xlink:title="The major device of the file itself, if it is a character special device.">
<polygon fill="#ffcc00" stroke="none" points="9,-23 9,-43 204,-43 204,-23 9,-23"/>
<polygon fill="none" stroke="black" points="9,-23 9,-43 204,-43 204,-23 9,-23"/>
<text text-anchor="start" x="13" y="-29.8" font-family="Times,serif" font-size="14.00">[INTEGER] c&#45;major&#45;device (0..1)</text>
</a>
</g>
<g id="a_node1_6"><a xlink:href="IDMEF_NAV_LINK_TAG?idmef_class=Inode" xlink:title="The inode number.">
<polygon fill="#ffcc00" stroke="none" points="9,-3 9,-23 204,-23 204,-3 9,-3"/>
<polygon fill="none" stroke="black" points="9,-3 9,-23 204,-23 204,-3 9,-3"/>
<text text-anchor="start" x="33" y="-9.8" font-family="Times,serif" font-size="14.00">[INTEGER] number (0..1)</text>
</a>
</g>
</g>
</g>
</svg>
