<?xml version="1.0" encoding="UTF-8" standalone="no"?>
<!DOCTYPE svg PUBLIC "-//W3C//DTD SVG 1.1//EN"
 "http://www.w3.org/Graphics/SVG/1.1/DTD/svg11.dtd">
<!-- Generated by graphviz version 2.30.1 (20180420.1509)
 -->
<!-- Title: Linkage Pages: 1 -->
<svg width="704pt" height="437pt"
 viewBox="0.00 0.00 704.00 437.00" xmlns="http://www.w3.org/2000/svg" xmlns:xlink="http://www.w3.org/1999/xlink">
<g id="graph0" class="graph" transform="scale(1 1) rotate(0) translate(4 433)">
<title>Linkage</title>
<!-- Checksum -->
<g id="node1" class="node"><title>Checksum</title>
<g id="a_node1_0"><a xlink:href="IDMEF_NAV_LINK_TAG?idmef_class=Checksum" xlink:title="The Checksum class represents checksum information associated with the file. &#160;This checksum information can be provided by file integrity checkers, among others. ">
<polygon fill="#997a00" stroke="none" points="286,-404 286,-425 462,-425 462,-404 286,-404"/>
<polygon fill="none" stroke="black" points="286,-404 286,-425 462,-425 462,-404 286,-404"/>
<text text-anchor="start" x="345" y="-411.3" font-family="Times,serif" font-size="14.00">Checksum</text>
</a>
</g>
<g id="a_node1_1"><a xlink:href="IDMEF_NAV_LINK_TAG?idmef_class=Checksum" xlink:title="The value of the checksum.">
<polygon fill="#ffcc00" stroke="none" points="286,-384 286,-404 462,-404 462,-384 286,-384"/>
<polygon fill="none" stroke="black" points="286,-384 286,-404 462,-404 462,-384 286,-384"/>
<text text-anchor="start" x="318.5" y="-390.8" font-family="Times,serif" font-size="14.00">[STRING] value (1)</text>
</a>
</g>
<g id="a_node1_2"><a xlink:href="IDMEF_NAV_LINK_TAG?idmef_class=Checksum" xlink:title="The key to the checksum, if appropriate.">
<polygon fill="#ffcc00" stroke="none" points="286,-364 286,-384 462,-384 462,-364 286,-364"/>
<polygon fill="none" stroke="black" points="286,-364 286,-384 462,-384 462,-364 286,-364"/>
<text text-anchor="start" x="316.5" y="-370.8" font-family="Times,serif" font-size="14.00">[STRING] key (0..1)</text>
</a>
</g>
<g id="a_node1_3"><a xlink:href="IDMEF_NAV_LINK_TAG?idmef_class=Checksum" xlink:title="default value. &#160;(See also Section 10.)">
<polygon fill="#ffcc00" stroke="none" points="286,-344 286,-364 462,-364 462,-344 286,-344"/>
<polygon fill="none" stroke="black" points="286,-344 286,-364 462,-364 462,-344 286,-344"/>
<text text-anchor="start" x="289.5" y="-350.8" font-family="Times,serif" font-size="14.00">[ENUM] algorithm (Required)</text>
</a>
</g>
</g>
<!-- File -->
<g id="node2" class="node"><title>File</title>
<g id="a_node2_4"><a xlink:href="IDMEF_NAV_LINK_TAG?idmef_class=File" xlink:title="The File class provides specific information about a file or other file&#45;like object that has been created, deleted, or modified on the target. &#160;The description can provide either the file settings prior to the event or the file settings at the time of the event, as specified using the &quot;category&quot; attribute. ">
<polygon fill="#997a00" stroke="none" points="9,-270 9,-291 202,-291 202,-270 9,-270"/>
<polygon fill="none" stroke="black" points="9,-270 9,-291 202,-291 202,-270 9,-270"/>
<text text-anchor="start" x="94.5" y="-277.3" font-family="Times,serif" font-size="14.00">File</text>
</a>
</g>
<g id="a_node2_5"><a xlink:href="IDMEF_NAV_LINK_TAG?idmef_class=File" xlink:title="The type of file system the file resides on. &#160;This attribute governs how path names and other attributes are interpreted.">
<polygon fill="#ffcc00" stroke="none" points="9,-250 9,-270 202,-270 202,-250 9,-250"/>
<polygon fill="none" stroke="black" points="9,-250 9,-270 202,-270 202,-250 9,-250"/>
<text text-anchor="start" x="38.5" y="-256.8" font-family="Times,serif" font-size="14.00">[ENUM] category (0..1)</text>
</a>
</g>
<g id="a_node2_6"><a xlink:href="IDMEF_NAV_LINK_TAG?idmef_class=File" xlink:title="The physical space on disk consumed by the file, in bytes. &#160;On Unix UFS file systems, this value corresponds to 512 * stat.st_blocks. &#160;On Windows NTFS, this value corresponds to End of File (EOF).">
<polygon fill="#ffcc00" stroke="none" points="9,-230 9,-250 202,-250 202,-230 9,-230"/>
<polygon fill="none" stroke="black" points="9,-230 9,-250 202,-250 202,-230 9,-230"/>
<text text-anchor="start" x="29" y="-236.8" font-family="Times,serif" font-size="14.00">[INTEGER] disk&#45;size (0..1)</text>
</a>
</g>
<g id="a_node2_7"><a xlink:href="IDMEF_NAV_LINK_TAG?idmef_class=File" xlink:title="A unique identifier for this file; see Section 3.2.9.">
<polygon fill="#ffcc00" stroke="none" points="9,-210 9,-230 202,-230 202,-210 9,-210"/>
<polygon fill="none" stroke="black" points="9,-210 9,-230 202,-230 202,-210 9,-210"/>
<text text-anchor="start" x="44" y="-216.8" font-family="Times,serif" font-size="14.00">[STRING] ident (0..1)</text>
</a>
</g>
<g id="a_node2_8"><a xlink:href="IDMEF_NAV_LINK_TAG?idmef_class=File" xlink:title="The name of the file to which the alert applies, not including the path to the file.">
<polygon fill="#ffcc00" stroke="none" points="9,-190 9,-210 202,-210 202,-190 9,-190"/>
<polygon fill="none" stroke="black" points="9,-190 9,-210 202,-210 202,-190 9,-190"/>
<text text-anchor="start" x="49.5" y="-196.8" font-family="Times,serif" font-size="14.00">[STRING] name (1)</text>
</a>
</g>
<g id="a_node2_9"><a xlink:href="IDMEF_NAV_LINK_TAG?idmef_class=File" xlink:title="The size of the data, in bytes. &#160;Typically what is meant when referring to file size. &#160;On Unix UFS file systems, this value corresponds to stat.st_size. &#160;On Windows NTFS, this value corresponds to Valid Data Length (VDL).">
<polygon fill="#ffcc00" stroke="none" points="9,-170 9,-190 202,-190 202,-170 9,-170"/>
<polygon fill="none" stroke="black" points="9,-170 9,-190 202,-190 202,-170 9,-170"/>
<text text-anchor="start" x="29" y="-176.8" font-family="Times,serif" font-size="14.00">[INTEGER] data&#45;size (0..1)</text>
</a>
</g>
<g id="a_node2_10"><a xlink:href="IDMEF_NAV_LINK_TAG?idmef_class=File" xlink:title="Time the file was created. &#160;Note that this is *not* the Unix &quot;st_ctime&quot; file attribute (which is not file creation time). &#160;The Unix &quot;st_ctime&quot; attribute is contained in the &quot;Inode&quot; class.">
<polygon fill="#ffcc00" stroke="none" points="9,-150 9,-170 202,-170 202,-150 9,-150"/>
<polygon fill="none" stroke="black" points="9,-150 9,-170 202,-170 202,-150 9,-150"/>
<text text-anchor="start" x="16.5" y="-156.8" font-family="Times,serif" font-size="14.00">[DATETIME] create&#45;time (0..1)</text>
</a>
</g>
<g id="a_node2_11"><a xlink:href="IDMEF_NAV_LINK_TAG?idmef_class=File" xlink:title="Time the file was last accessed.">
<polygon fill="#ffcc00" stroke="none" points="9,-130 9,-150 202,-150 202,-130 9,-130"/>
<polygon fill="none" stroke="black" points="9,-130 9,-150 202,-150 202,-130 9,-130"/>
<text text-anchor="start" x="15" y="-136.8" font-family="Times,serif" font-size="14.00">[DATETIME] access&#45;time (0..1)</text>
</a>
</g>
<g id="a_node2_12"><a xlink:href="IDMEF_NAV_LINK_TAG?idmef_class=File" xlink:title="The full path to the file, including the name. &#160;The path name should be represented in as &quot;universal&quot; a manner as possible, to facilitate processing of the alert.">
<polygon fill="#ffcc00" stroke="none" points="9,-110 9,-130 202,-130 202,-110 9,-110"/>
<polygon fill="none" stroke="black" points="9,-110 9,-130 202,-130 202,-110 9,-110"/>
<text text-anchor="start" x="53" y="-116.8" font-family="Times,serif" font-size="14.00">[STRING] path (1)</text>
</a>
</g>
<g id="a_node2_13"><a xlink:href="IDMEF_NAV_LINK_TAG?idmef_class=File" xlink:title="The type of file, as a mime&#45;type.">
<polygon fill="#ffcc00" stroke="none" points="9,-90 9,-110 202,-110 202,-90 9,-90"/>
<polygon fill="none" stroke="black" points="9,-90 9,-110 202,-110 202,-90 9,-90"/>
<text text-anchor="start" x="34.5" y="-96.8" font-family="Times,serif" font-size="14.00">[STRING] file&#45;type (0..1)</text>
</a>
</g>
<g id="a_node2_14"><a xlink:href="IDMEF_NAV_LINK_TAG?idmef_class=File" xlink:title="Time the file was last modified.">
<polygon fill="#ffcc00" stroke="none" points="9,-70 9,-90 202,-90 202,-70 9,-70"/>
<polygon fill="none" stroke="black" points="9,-70 9,-90 202,-90 202,-70 9,-70"/>
<text text-anchor="start" x="12.5" y="-76.8" font-family="Times,serif" font-size="14.00">[DATETIME] modify&#45;time (0..1)</text>
</a>
</g>
</g>
<!-- File&#45;&gt;Checksum -->
<g id="edge1" class="edge"><title>File&#45;&gt;Checksum</title>
<path fill="none" stroke="black" d="M209.67,-284.597C228.366,-301.028 248.221,-317.147 268,-331 269.91,-332.338 271.857,-333.663 273.835,-334.975"/>
<polygon fill="black" stroke="black" points="272.371,-338.192 282.681,-340.632 276.142,-332.295 272.371,-338.192"/>
<text text-anchor="middle" x="239" y="-319.8" font-family="Times,serif" font-size="14.00">0..*</text>
</g>
<!-- FileAccess -->
<g id="node4" class="node"><title>FileAccess</title>
<g id="a_node4_15"><a xlink:href="IDMEF_NAV_LINK_TAG?idmef_class=FileAccess" xlink:title="The FileAccess class represents the access permissions on a file. The representation is intended to be useful across operating systems. ">
<polygon fill="#997a00" stroke="none" points="297,-297 297,-318 452,-318 452,-297 297,-297"/>
<polygon fill="none" stroke="black" points="297,-297 297,-318 452,-318 452,-297 297,-297"/>
<text text-anchor="start" x="344.5" y="-304.3" font-family="Times,serif" font-size="14.00">FileAccess</text>
</a>
</g>
<g id="a_node4_16"><a xlink:href="IDMEF_NAV_LINK_TAG?idmef_class=FileAccess" xlink:title="Level of access allowed. &#160;The permitted values are shown below. &#160;There is no default value. &#160;(See also Section 10.)">
<polygon fill="#ffcc00" stroke="none" points="297,-277 297,-297 452,-297 452,-277 297,-277"/>
<polygon fill="none" stroke="black" points="297,-277 297,-297 452,-297 452,-277 297,-277"/>
<text text-anchor="start" x="300.5" y="-283.8" font-family="Times,serif" font-size="14.00">[ENUM] Permission (1..*)</text>
</a>
</g>
</g>
<!-- File&#45;&gt;FileAccess -->
<g id="edge3" class="edge"><title>File&#45;&gt;FileAccess</title>
<path fill="none" stroke="black" d="M209.851,-237.301C228.941,-246.76 248.882,-256.067 268,-264 273.088,-266.111 278.358,-268.177 283.704,-270.181"/>
<polygon fill="black" stroke="black" points="282.793,-273.575 293.387,-273.718 285.195,-267 282.793,-273.575"/>
<text text-anchor="middle" x="239" y="-260.8" font-family="Times,serif" font-size="14.00">0..*</text>
</g>
<!-- Inode -->
<g id="node5" class="node"><title>Inode</title>
<g id="a_node5_17"><a xlink:href="IDMEF_NAV_LINK_TAG?idmef_class=Inode" xlink:title="The Inode class is used to represent the additional information contained in a Unix file system i&#45;node. ">
<polygon fill="#997a00" stroke="none" points="277,-230 277,-251 472,-251 472,-230 277,-230"/>
<polygon fill="none" stroke="black" points="277,-230 277,-251 472,-251 472,-230 277,-230"/>
<text text-anchor="start" x="359" y="-237.3" font-family="Times,serif" font-size="14.00">Inode</text>
</a>
</g>
<g id="a_node5_18"><a xlink:href="IDMEF_NAV_LINK_TAG?idmef_class=Inode" xlink:title="The minor device of the file itself, if it is a character special device.">
<polygon fill="#ffcc00" stroke="none" points="277,-210 277,-230 472,-230 472,-210 277,-210"/>
<polygon fill="none" stroke="black" points="277,-210 277,-230 472,-230 472,-210 277,-210"/>
<text text-anchor="start" x="280.5" y="-216.8" font-family="Times,serif" font-size="14.00">[INTEGER] c&#45;minor&#45;device (0..1)</text>
</a>
</g>
<g id="a_node5_19"><a xlink:href="IDMEF_NAV_LINK_TAG?idmef_class=Inode" xlink:title="The time of the last inode change, given by the st_ctime element of &quot;struct stat&quot;.">
<polygon fill="#ffcc00" stroke="none" points="277,-190 277,-210 472,-210 472,-190 277,-190"/>
<polygon fill="none" stroke="black" points="277,-190 277,-210 472,-210 472,-190 277,-190"/>
<text text-anchor="start" x="282.5" y="-196.8" font-family="Times,serif" font-size="14.00">[DATETIME] change&#45;time (0..1)</text>
</a>
</g>
<g id="a_node5_20"><a xlink:href="IDMEF_NAV_LINK_TAG?idmef_class=Inode" xlink:title="The minor device number of the device the file resides on.">
<polygon fill="#ffcc00" stroke="none" points="277,-170 277,-190 472,-190 472,-170 277,-170"/>
<polygon fill="none" stroke="black" points="277,-170 277,-190 472,-190 472,-170 277,-170"/>
<text text-anchor="start" x="285.5" y="-176.8" font-family="Times,serif" font-size="14.00">[INTEGER] minor&#45;device (0..1)</text>
</a>
</g>
<g id="a_node5_21"><a xlink:href="IDMEF_NAV_LINK_TAG?idmef_class=Inode" xlink:title="The major device number of the device the file resides on.">
<polygon fill="#ffcc00" stroke="none" points="277,-150 277,-170 472,-170 472,-150 277,-150"/>
<polygon fill="none" stroke="black" points="277,-150 277,-170 472,-170 472,-150 277,-150"/>
<text text-anchor="start" x="286" y="-156.8" font-family="Times,serif" font-size="14.00">[INTEGER] major&#45;device (0..1)</text>
</a>
</g>
<g id="a_node5_22"><a xlink:href="IDMEF_NAV_LINK_TAG?idmef_class=Inode" xlink:title="The major device of the file itself, if it is a character special device.">
<polygon fill="#ffcc00" stroke="none" points="277,-130 277,-150 472,-150 472,-130 277,-130"/>
<polygon fill="none" stroke="black" points="277,-130 277,-150 472,-150 472,-130 277,-130"/>
<text text-anchor="start" x="281" y="-136.8" font-family="Times,serif" font-size="14.00">[INTEGER] c&#45;major&#45;device (0..1)</text>
</a>
</g>
<g id="a_node5_23"><a xlink:href="IDMEF_NAV_LINK_TAG?idmef_class=Inode" xlink:title="The inode number.">
<polygon fill="#ffcc00" stroke="none" points="277,-110 277,-130 472,-130 472,-110 277,-110"/>
<polygon fill="none" stroke="black" points="277,-110 277,-130 472,-130 472,-110 277,-110"/>
<text text-anchor="start" x="301" y="-116.8" font-family="Times,serif" font-size="14.00">[INTEGER] number (0..1)</text>
</a>
</g>
</g>
<!-- File&#45;&gt;Inode -->
<g id="edge4" class="edge"><title>File&#45;&gt;Inode</title>
<path fill="none" stroke="black" d="M209.611,-181C225.364,-181 241.701,-181 257.684,-181"/>
<polygon fill="black" stroke="black" points="258.126,-184.5 268.126,-181 258.126,-177.5 258.126,-184.5"/>
<text text-anchor="middle" x="239" y="-184.8" font-family="Times,serif" font-size="14.00">0..1</text>
</g>
<!-- Linkage -->
<g id="node6" class="node"><title>Linkage</title>
<g id="a_node6_24"><a xlink:href="IDMEF_NAV_LINK_TAG?idmef_class=Linkage" xlink:title="The Linkage class represents file system connections between the file described in the &lt;File&gt; element and other objects in the file system. For example, if the &lt;File&gt; element is a symbolic link or shortcut, then the &lt;Linkage&gt; element should contain the name of the object the link points to. &#160;Further information can be provided about the object in the &lt;Linkage&gt; element with another &lt;File&gt; element, if appropriate. ">
<polygon fill="#997a00" stroke="none" points="291,-63 291,-84 458,-84 458,-63 291,-63"/>
<polygon fill="none" stroke="black" points="291,-63 291,-84 458,-84 458,-63 291,-63"/>
<text text-anchor="start" x="352" y="-70.3" font-family="Times,serif" font-size="14.00">Linkage</text>
</a>
</g>
<g id="a_node6_25"><a xlink:href="IDMEF_NAV_LINK_TAG?idmef_class=Linkage" xlink:title="The full path to the file system object, including the name. &#160;The path name should be represented in as &quot;universal&quot; a manner as possible, to facilitate processing of the alert.">
<polygon fill="#ffcc00" stroke="none" points="291,-43 291,-63 458,-63 458,-43 291,-43"/>
<polygon fill="none" stroke="black" points="291,-43 291,-63 458,-63 458,-43 291,-43"/>
<text text-anchor="start" x="322" y="-49.8" font-family="Times,serif" font-size="14.00">[STRING] path (1)</text>
</a>
</g>
<g id="a_node6_26"><a xlink:href="IDMEF_NAV_LINK_TAG?idmef_class=Linkage" xlink:title="The name of the file system object, not including the path.">
<polygon fill="#ffcc00" stroke="none" points="291,-23 291,-43 458,-43 458,-23 291,-23"/>
<polygon fill="none" stroke="black" points="291,-23 291,-43 458,-43 458,-23 291,-23"/>
<text text-anchor="start" x="318.5" y="-29.8" font-family="Times,serif" font-size="14.00">[STRING] name (1)</text>
</a>
</g>
<g id="a_node6_27"><a xlink:href="IDMEF_NAV_LINK_TAG?idmef_class=Linkage" xlink:title="Section 10.)">
<polygon fill="#ffcc00" stroke="none" points="291,-3 291,-23 458,-23 458,-3 291,-3"/>
<polygon fill="none" stroke="black" points="291,-3 291,-23 458,-23 458,-3 291,-3"/>
<text text-anchor="start" x="294.5" y="-9.8" font-family="Times,serif" font-size="14.00">[ENUM] category (Optional)</text>
</a>
</g>
</g>
<!-- File&#45;&gt;Linkage -->
<g id="edge5" class="edge"><title>File&#45;&gt;Linkage</title>
<path fill="none" stroke="black" d="M209.619,-127.058C229.001,-117.029 249.103,-106.668 268,-97 270.599,-95.6703 273.235,-94.3238 275.896,-92.9666"/>
<polygon fill="black" stroke="black" points="277.699,-95.9761 285.022,-88.3193 274.523,-89.7383 277.699,-95.9761"/>
<text text-anchor="middle" x="239" y="-119.8" font-family="Times,serif" font-size="14.00">0..*</text>
</g>
<!-- UserId -->
<g id="node3" class="node"><title>UserId</title>
<g id="a_node3_28"><a xlink:href="IDMEF_NAV_LINK_TAG?idmef_class=UserId" xlink:title="The UserId class provides specific information about a user. &#160;More than one UserId can be used within the User class to indicate attempts to transition from one user to another, or to provide complete information about a user&#39;s (or process&#39;) privileges. ">
<polygon fill="#3d7a99" stroke="none" points="532,-337 532,-358 688,-358 688,-337 532,-337"/>
<polygon fill="none" stroke="black" points="532,-337 532,-358 688,-358 688,-337 532,-337"/>
<text text-anchor="start" x="591.5" y="-344.3" font-family="Times,serif" font-size="14.00">UserId</text>
</a>
</g>
<g id="a_node3_29"><a xlink:href="IDMEF_NAV_LINK_TAG?idmef_class=UserId" xlink:title="A user or group name.">
<polygon fill="#66ccff" stroke="none" points="532,-317 532,-337 688,-337 688,-317 532,-317"/>
<polygon fill="none" stroke="black" points="532,-317 532,-337 688,-337 688,-317 532,-317"/>
<text text-anchor="start" x="547" y="-323.8" font-family="Times,serif" font-size="14.00">[STRING] name (0..1)</text>
</a>
</g>
<g id="a_node3_30"><a xlink:href="IDMEF_NAV_LINK_TAG?idmef_class=UserId" xlink:title="A user or group number.">
<polygon fill="#66ccff" stroke="none" points="532,-297 532,-317 688,-317 688,-297 532,-297"/>
<polygon fill="none" stroke="black" points="532,-297 532,-317 688,-317 688,-297 532,-297"/>
<text text-anchor="start" x="536.5" y="-303.8" font-family="Times,serif" font-size="14.00">[INTEGER] number (0..1)</text>
</a>
</g>
<g id="a_node3_31"><a xlink:href="IDMEF_NAV_LINK_TAG?idmef_class=UserId" xlink:title="The tty the user is using.">
<polygon fill="#66ccff" stroke="none" points="532,-277 532,-297 688,-297 688,-277 532,-277"/>
<polygon fill="none" stroke="black" points="532,-277 532,-297 688,-297 688,-277 532,-277"/>
<text text-anchor="start" x="542" y="-283.8" font-family="Times,serif" font-size="14.00">[STRING] tty (Optional)</text>
</a>
</g>
<g id="a_node3_32"><a xlink:href="IDMEF_NAV_LINK_TAG?idmef_class=UserId" xlink:title="A unique identifier for the user id, see Section 3.2.9.">
<polygon fill="#66ccff" stroke="none" points="532,-257 532,-277 688,-277 688,-257 532,-257"/>
<polygon fill="none" stroke="black" points="532,-257 532,-277 688,-277 688,-257 532,-257"/>
<text text-anchor="start" x="535.5" y="-263.8" font-family="Times,serif" font-size="14.00">[STRING] ident (Optional)</text>
</a>
</g>
<g id="a_node3_33"><a xlink:href="IDMEF_NAV_LINK_TAG?idmef_class=UserId" xlink:title="The type of user information represented. &#160;The permitted values for this attribute are shown below. &#160;The default value is &quot;original&#45;user&quot;. &#160;(See also Section 10.)">
<polygon fill="#66ccff" stroke="none" points="532,-237 532,-257 688,-257 688,-237 532,-237"/>
<polygon fill="none" stroke="black" points="532,-237 532,-257 688,-257 688,-237 532,-237"/>
<text text-anchor="start" x="541.5" y="-243.8" font-family="Times,serif" font-size="14.00">[ENUM] type (Optional)</text>
</a>
</g>
</g>
<!-- FileAccess&#45;&gt;UserId -->
<g id="edge2" class="edge"><title>FileAccess&#45;&gt;UserId</title>
<path fill="none" stroke="black" d="M459.81,-298C477.195,-298 495.607,-298 513.343,-298"/>
<polygon fill="black" stroke="black" points="513.694,-301.5 523.694,-298 513.694,-294.5 513.694,-301.5"/>
<text text-anchor="middle" x="502" y="-301.8" font-family="Times,serif" font-size="14.00">1</text>
</g>
<!-- Linkage&#45;&gt;File -->
<g id="edge6" class="edge"><title>Linkage&#45;&gt;File</title>
<path fill="none" stroke="black" d="M282.178,-67.6783C263.79,-73.8837 244.918,-81.3199 228,-90 224.848,-91.6171 221.692,-93.3143 218.54,-95.0789"/>
<polygon fill="black" stroke="black" points="216.572,-92.1743 209.678,-100.22 220.084,-98.2294 216.572,-92.1743"/>
<text text-anchor="middle" x="239" y="-93.8" font-family="Times,serif" font-size="14.00">1</text>
</g>
</g>
</svg>
