<?xml version="1.0" encoding="UTF-8" standalone="no"?>
<!DOCTYPE svg PUBLIC "-//W3C//DTD SVG 1.1//EN"
 "http://www.w3.org/Graphics/SVG/1.1/DTD/svg11.dtd">
<!-- Generated by graphviz version 2.30.1 (20180420.1509)
 -->
<!-- Title: Node Pages: 1 -->
<svg width="458pt" height="156pt"
 viewBox="0.00 0.00 458.00 156.00" xmlns="http://www.w3.org/2000/svg" xmlns:xlink="http://www.w3.org/1999/xlink">
<g id="graph0" class="graph" transform="scale(1 1) rotate(0) translate(4 152)">
<title>Node</title>
<!-- Address -->
<g id="node1" class="node"><title>Address</title>
<g id="a_node1_0"><a xlink:href="IDMEF_NAV_LINK_TAG?idmef_class=Address" xlink:title="The Address class is used to represent network, hardware, and application addresses. ">
<polygon fill="#007a00" stroke="none" points="251,-123 251,-144 442,-144 442,-123 251,-123"/>
<polygon fill="none" stroke="black" points="251,-123 251,-144 442,-144 442,-123 251,-123"/>
<text text-anchor="start" x="324" y="-130.3" font-family="Times,serif" font-size="14.00">Address</text>
</a>
</g>
<g id="a_node1_1"><a xlink:href="IDMEF_NAV_LINK_TAG?idmef_class=Address" xlink:title="The network mask for the address, if appropriate.">
<polygon fill="#00cc00" stroke="none" points="251,-103 251,-123 442,-123 442,-103 251,-103"/>
<polygon fill="none" stroke="black" points="251,-103 251,-123 442,-123 442,-103 251,-103"/>
<text text-anchor="start" x="275.5" y="-109.8" font-family="Times,serif" font-size="14.00">[STRING] netmask (0..1)</text>
</a>
</g>
<g id="a_node1_2"><a xlink:href="IDMEF_NAV_LINK_TAG?idmef_class=Address" xlink:title="The address information. &#160;The format of this data is governed by the category attribute.">
<polygon fill="#00cc00" stroke="none" points="251,-83 251,-103 442,-103 442,-83 251,-83"/>
<polygon fill="none" stroke="black" points="251,-83 251,-103 442,-103 442,-83 251,-83"/>
<text text-anchor="start" x="285.5" y="-89.8" font-family="Times,serif" font-size="14.00">[STRING] address (1)</text>
</a>
</g>
<g id="a_node1_3"><a xlink:href="IDMEF_NAV_LINK_TAG?idmef_class=Address" xlink:title="The type of address represented. &#160;The permitted values for this attribute are shown below. &#160;The default value is &quot;unknown&quot;. &#160;(See also Section 10.)">
<polygon fill="#00cc00" stroke="none" points="251,-63 251,-83 442,-83 442,-63 251,-63"/>
<polygon fill="none" stroke="black" points="251,-63 251,-83 442,-83 442,-63 251,-63"/>
<text text-anchor="start" x="266.5" y="-69.8" font-family="Times,serif" font-size="14.00">[ENUM] category (Optional)</text>
</a>
</g>
<g id="a_node1_4"><a xlink:href="IDMEF_NAV_LINK_TAG?idmef_class=Address" xlink:title="The name of the Virtual LAN to which the address belongs.">
<polygon fill="#00cc00" stroke="none" points="251,-43 251,-63 442,-63 442,-43 251,-43"/>
<polygon fill="none" stroke="black" points="251,-43 251,-63 442,-63 442,-43 251,-43"/>
<text text-anchor="start" x="256.5" y="-49.8" font-family="Times,serif" font-size="14.00">[STRING] vlan&#45;name (Optional)</text>
</a>
</g>
<g id="a_node1_5"><a xlink:href="IDMEF_NAV_LINK_TAG?idmef_class=Address" xlink:title="The number of the Virtual LAN to which the address belongs.">
<polygon fill="#00cc00" stroke="none" points="251,-23 251,-43 442,-43 442,-23 251,-23"/>
<polygon fill="none" stroke="black" points="251,-23 251,-43 442,-43 442,-23 251,-23"/>
<text text-anchor="start" x="254.5" y="-29.8" font-family="Times,serif" font-size="14.00">[INTEGER] vlan&#45;num (Optional)</text>
</a>
</g>
<g id="a_node1_6"><a xlink:href="IDMEF_NAV_LINK_TAG?idmef_class=Address" xlink:title="A unique identifier for the address; see Section 3.2.9.">
<polygon fill="#00cc00" stroke="none" points="251,-3 251,-23 442,-23 442,-3 251,-3"/>
<polygon fill="none" stroke="black" points="251,-3 251,-23 442,-23 442,-3 251,-3"/>
<text text-anchor="start" x="272" y="-9.8" font-family="Times,serif" font-size="14.00">[STRING] ident (Optional)</text>
</a>
</g>
</g>
<!-- Node -->
<g id="node2" class="node"><title>Node</title>
<g id="a_node2_7"><a xlink:href="IDMEF_NAV_LINK_TAG?idmef_class=Node" xlink:title="The Node class is used to identify hosts and other network devices (routers, switches, etc.). ">
<polygon fill="#007a00" stroke="none" points="9,-103 9,-124 176,-124 176,-103 9,-103"/>
<polygon fill="none" stroke="black" points="9,-103 9,-124 176,-124 176,-103 9,-103"/>
<text text-anchor="start" x="77.5" y="-110.3" font-family="Times,serif" font-size="14.00">Node</text>
</a>
</g>
<g id="a_node2_8"><a xlink:href="IDMEF_NAV_LINK_TAG?idmef_class=Node" xlink:title="The location of the equipment.">
<polygon fill="#00cc00" stroke="none" points="9,-83 9,-103 176,-103 176,-83 9,-83"/>
<polygon fill="none" stroke="black" points="9,-83 9,-103 176,-103 176,-83 9,-83"/>
<text text-anchor="start" x="23" y="-89.8" font-family="Times,serif" font-size="14.00">[STRING] location (0..1)</text>
</a>
</g>
<g id="a_node2_9"><a xlink:href="IDMEF_NAV_LINK_TAG?idmef_class=Node" xlink:title="The name of the equipment. &#160;This information MUST be provided if no Address information is given.">
<polygon fill="#00cc00" stroke="none" points="9,-63 9,-83 176,-83 176,-63 9,-63"/>
<polygon fill="none" stroke="black" points="9,-63 9,-83 176,-83 176,-63 9,-63"/>
<text text-anchor="start" x="29.5" y="-69.8" font-family="Times,serif" font-size="14.00">[STRING] name (0..1)</text>
</a>
</g>
<g id="a_node2_10"><a xlink:href="IDMEF_NAV_LINK_TAG?idmef_class=Node" xlink:title="The &quot;domain&quot; from which the name information was obtained, if relevant. &#160;The permitted values for this attribute are shown in the table below. &#160;The default value is &quot;unknown&quot;. (See also Section 10 for extensions to the table.)">
<polygon fill="#00cc00" stroke="none" points="9,-43 9,-63 176,-63 176,-43 9,-43"/>
<polygon fill="none" stroke="black" points="9,-43 9,-63 176,-63 176,-43 9,-43"/>
<text text-anchor="start" x="12.5" y="-49.8" font-family="Times,serif" font-size="14.00">[ENUM] category (Optional)</text>
</a>
</g>
<g id="a_node2_11"><a xlink:href="IDMEF_NAV_LINK_TAG?idmef_class=Node" xlink:title="A unique identifier for the node; see Section 3.2.9.">
<polygon fill="#00cc00" stroke="none" points="9,-23 9,-43 176,-43 176,-23 9,-23"/>
<polygon fill="none" stroke="black" points="9,-23 9,-43 176,-43 176,-23 9,-23"/>
<text text-anchor="start" x="18" y="-29.8" font-family="Times,serif" font-size="14.00">[STRING] ident (Optional)</text>
</a>
</g>
</g>
<!-- Node&#45;&gt;Address -->
<g id="edge1" class="edge"><title>Node&#45;&gt;Address</title>
<path fill="none" stroke="black" d="M183.622,-74C199.397,-74 215.977,-74 232.259,-74"/>
<polygon fill="black" stroke="black" points="232.348,-77.5001 242.348,-74 232.348,-70.5001 232.348,-77.5001"/>
<text text-anchor="middle" x="213" y="-77.8" font-family="Times,serif" font-size="14.00">0..*</text>
</g>
</g>
</svg>
