<?xml version="1.0" encoding="UTF-8" standalone="no"?>
<!DOCTYPE svg PUBLIC "-//W3C//DTD SVG 1.1//EN"
 "http://www.w3.org/Graphics/SVG/1.1/DTD/svg11.dtd">
<!-- Generated by graphviz version 2.30.1 (20180420.1509)
 -->
<!-- Title: OverflowAlert Pages: 1 -->
<svg width="160pt" height="96pt"
 viewBox="0.00 0.00 160.00 96.00" xmlns="http://www.w3.org/2000/svg" xmlns:xlink="http://www.w3.org/1999/xlink">
<g id="graph0" class="graph" transform="scale(1 1) rotate(0) translate(4 92)">
<title>OverflowAlert</title>
<!-- OverflowAlert -->
<g id="node1" class="node"><title>OverflowAlert</title>
<g id="a_node1_0"><a xlink:href="IDMEF_NAV_LINK_TAG?idmef_class=OverflowAlert" xlink:title="The OverflowAlert carries additional information related to buffer overflow attacks. &#160;It is intended to enable an analyzer to provide the details of the overflow attack itself. ">
<polygon fill="#727272" stroke="none" points="9,-63 9,-84 144,-84 144,-63 9,-63"/>
<polygon fill="none" stroke="black" points="9,-63 9,-84 144,-84 144,-63 9,-63"/>
<text text-anchor="start" x="36.5" y="-70.3" font-family="Times,serif" font-size="14.00">OverflowAlert</text>
</a>
</g>
<g id="a_node1_1"><a xlink:href="IDMEF_NAV_LINK_TAG?idmef_class=OverflowAlert" xlink:title="Some or all of the overflow data itself (dependent on how much the analyzer can capture).">
<polygon fill="#bfbfbf" stroke="none" points="9,-43 9,-63 144,-63 144,-43 9,-43"/>
<polygon fill="none" stroke="black" points="9,-43 9,-63 144,-63 144,-43 9,-43"/>
<text text-anchor="start" x="14.5" y="-49.8" font-family="Times,serif" font-size="14.00">[BYTE[]] buffer (0..1)</text>
</a>
</g>
<g id="a_node1_2"><a xlink:href="IDMEF_NAV_LINK_TAG?idmef_class=OverflowAlert" xlink:title="The program that the overflow attack attempted to run (NOTE: this is not the program that was attacked).">
<polygon fill="#bfbfbf" stroke="none" points="9,-23 9,-43 144,-43 144,-23 9,-23"/>
<polygon fill="none" stroke="black" points="9,-23 9,-43 144,-43 144,-23 9,-23"/>
<text text-anchor="start" x="12.5" y="-29.8" font-family="Times,serif" font-size="14.00">[STRING] program (1)</text>
</a>
</g>
<g id="a_node1_3"><a xlink:href="IDMEF_NAV_LINK_TAG?idmef_class=OverflowAlert" xlink:title="The size, in bytes, of the overflow (i.e., the number of bytes the attacker sent).">
<polygon fill="#bfbfbf" stroke="none" points="9,-3 9,-23 144,-23 144,-3 9,-3"/>
<polygon fill="none" stroke="black" points="9,-3 9,-23 144,-23 144,-3 9,-3"/>
<text text-anchor="start" x="13.5" y="-9.8" font-family="Times,serif" font-size="14.00">[INTEGER] size (0..1)</text>
</a>
</g>
</g>
</g>
</svg>
