<?xml version="1.0" encoding="UTF-8" standalone="no"?>
<!DOCTYPE svg PUBLIC "-//W3C//DTD SVG 1.1//EN"
 "http://www.w3.org/Graphics/SVG/1.1/DTD/svg11.dtd">
<!-- Generated by graphviz version 2.30.1 (20180420.1509)
 -->
<!-- Title: Service Pages: 1 -->
<svg width="592pt" height="323pt"
 viewBox="0.00 0.00 592.00 323.00" xmlns="http://www.w3.org/2000/svg" xmlns:xlink="http://www.w3.org/1999/xlink">
<g id="graph0" class="graph" transform="scale(1 1) rotate(0) translate(4 319)">
<title>Service</title>
<!-- SNMPService -->
<g id="node1" class="node"><title>SNMPService</title>
<g id="a_node1_0"><a xlink:href="IDMEF_NAV_LINK_TAG?idmef_class=SNMPService" xlink:title="The SNMPService class carries additional information related to SNMP traffic. &#160;The aggregate classes composing SNMPService must be interpreted as described in RFC 3411 [15] and RFC 3584 [16]. ">
<polygon fill="#997a7a" stroke="none" points="323,-290 323,-311 576,-311 576,-290 323,-290"/>
<polygon fill="none" stroke="black" points="323,-290 323,-311 576,-311 576,-290 323,-290"/>
<text text-anchor="start" x="410" y="-297.3" font-family="Times,serif" font-size="14.00">SNMPService</text>
</a>
</g>
<g id="a_node1_1"><a xlink:href="IDMEF_NAV_LINK_TAG?idmef_class=SNMPService" xlink:title="The security level of the SNMP request; see RFC 3411 [15] Section 3.4.3.">
<polygon fill="#ffcccc" stroke="none" points="323,-270 323,-290 576,-290 576,-270 323,-270"/>
<polygon fill="none" stroke="black" points="323,-270 323,-290 576,-290 576,-270 323,-270"/>
<text text-anchor="start" x="360.5" y="-276.8" font-family="Times,serif" font-size="14.00">[INTEGER] securityLevel (0..1)</text>
</a>
</g>
<g id="a_node1_2"><a xlink:href="IDMEF_NAV_LINK_TAG?idmef_class=SNMPService" xlink:title="The object&#39;s context name; see RFC 3411 [15] Section 3.3.3.">
<polygon fill="#ffcccc" stroke="none" points="323,-250 323,-270 576,-270 576,-250 323,-250"/>
<polygon fill="none" stroke="black" points="323,-250 323,-270 576,-270 576,-250 323,-250"/>
<text text-anchor="start" x="365" y="-256.8" font-family="Times,serif" font-size="14.00">[STRING] contextName (0..1)</text>
</a>
</g>
<g id="a_node1_3"><a xlink:href="IDMEF_NAV_LINK_TAG?idmef_class=SNMPService" xlink:title="The object&#39;s context engine identifier; see RFC 3411 [15] Section 3.3.2.">
<polygon fill="#ffcccc" stroke="none" points="323,-230 323,-250 576,-250 576,-230 323,-230"/>
<polygon fill="none" stroke="black" points="323,-230 323,-250 576,-250 576,-230 323,-230"/>
<text text-anchor="start" x="355.5" y="-236.8" font-family="Times,serif" font-size="14.00">[STRING] contextEngineID (0..1)</text>
</a>
</g>
<g id="a_node1_4"><a xlink:href="IDMEF_NAV_LINK_TAG?idmef_class=SNMPService" xlink:title="The object identifier in the request.">
<polygon fill="#ffcccc" stroke="none" points="323,-210 323,-230 576,-230 576,-210 323,-210"/>
<polygon fill="none" stroke="black" points="323,-210 323,-230 576,-230 576,-210 323,-210"/>
<text text-anchor="start" x="393" y="-216.8" font-family="Times,serif" font-size="14.00">[STRING] oid (0..1)</text>
</a>
</g>
<g id="a_node1_5"><a xlink:href="IDMEF_NAV_LINK_TAG?idmef_class=SNMPService" xlink:title="The SNMP version, typically 0 for SNMPv1, 1 for SNMPv2c, 2 for SNMPv2u and SNMPv2*, and 3 for SNMPv3; see RFC 3411 [15] Section 5 for appropriate values.">
<polygon fill="#ffcccc" stroke="none" points="323,-190 323,-210 576,-210 576,-190 323,-190"/>
<polygon fill="none" stroke="black" points="323,-190 323,-210 576,-210 576,-190 323,-190"/>
<text text-anchor="start" x="326.5" y="-196.8" font-family="Times,serif" font-size="14.00">[INTEGER] messageProcessingModel (0..1)</text>
</a>
</g>
<g id="a_node1_6"><a xlink:href="IDMEF_NAV_LINK_TAG?idmef_class=SNMPService" xlink:title="The command sent to the SNMP server (GET, SET, etc.).">
<polygon fill="#ffcccc" stroke="none" points="323,-170 323,-190 576,-190 576,-170 323,-170"/>
<polygon fill="none" stroke="black" points="323,-170 323,-190 576,-190 576,-170 323,-170"/>
<text text-anchor="start" x="374" y="-176.8" font-family="Times,serif" font-size="14.00">[STRING] command (0..1)</text>
</a>
</g>
<g id="a_node1_7"><a xlink:href="IDMEF_NAV_LINK_TAG?idmef_class=SNMPService" xlink:title="The object&#39;s security name; see RFC 3411 [15] Section 3.2.2.">
<polygon fill="#ffcccc" stroke="none" points="323,-150 323,-170 576,-170 576,-150 323,-150"/>
<polygon fill="none" stroke="black" points="323,-150 323,-170 576,-170 576,-150 323,-150"/>
<text text-anchor="start" x="363.5" y="-156.8" font-family="Times,serif" font-size="14.00">[STRING] securityName (0..1)</text>
</a>
</g>
<g id="a_node1_8"><a xlink:href="IDMEF_NAV_LINK_TAG?idmef_class=SNMPService" xlink:title="The identification of the security model in use, typically 0 for any, 1 for SNMPv1, 2 for SNMPv2c, and 3 for USM; see RFC 3411 [15] Section 5 for appropriate values.">
<polygon fill="#ffcccc" stroke="none" points="323,-130 323,-150 576,-150 576,-130 323,-130"/>
<polygon fill="none" stroke="black" points="323,-130 323,-150 576,-150 576,-130 323,-130"/>
<text text-anchor="start" x="357.5" y="-136.8" font-family="Times,serif" font-size="14.00">[INTEGER] securityModel (0..1)</text>
</a>
</g>
</g>
<!-- Service -->
<g id="node2" class="node"><title>Service</title>
<g id="a_node2_9"><a xlink:href="IDMEF_NAV_LINK_TAG?idmef_class=Service" xlink:title="The Service class describes network services on sources and targets. It can identify services by name, port, and protocol. &#160;When Service occurs as an aggregate class of Source, it is understood that the service is one from which activity of interest is originating; and that the service is &quot;attached&quot; to the Node, Process, and User information also contained in Source. &#160;Likewise, when Service occurs as an aggregate class of Target, it is understood that the service is one to which activity of interest is being directed; and that the service is &quot;attached&quot; to the Node, Process, and User information also contained in Target. &#160;If Service occurs in both Source and Target, then information in both locations should be the same. &#160;If information is the same in both locations and implementers wish to carry it in only one location, they should specify it as an aggregate of the Target class. ">
<polygon fill="#997a7a" stroke="none" points="9,-206 9,-227 270,-227 270,-206 9,-206"/>
<polygon fill="none" stroke="black" points="9,-206 9,-227 270,-227 270,-206 9,-206"/>
<text text-anchor="start" x="119" y="-213.3" font-family="Times,serif" font-size="14.00">Service</text>
</a>
</g>
<g id="a_node2_10"><a xlink:href="IDMEF_NAV_LINK_TAG?idmef_class=Service" xlink:title="A list of port numbers being used; see Section 3.2.8 for formatting rules. &#160;If a portlist is given, the iana_protocol_number and iana_protocol_name MUST apply to all the elements of the list.">
<polygon fill="#ffcccc" stroke="none" points="9,-186 9,-206 270,-206 270,-186 9,-186"/>
<polygon fill="none" stroke="black" points="9,-186 9,-206 270,-206 270,-186 9,-186"/>
<text text-anchor="start" x="65.5" y="-192.8" font-family="Times,serif" font-size="14.00">[PORTLIST] portlist (0..1)</text>
</a>
</g>
<g id="a_node2_11"><a xlink:href="IDMEF_NAV_LINK_TAG?idmef_class=Service" xlink:title="Additional information about the protocol being used. &#160;The intent of the protocol field is to carry additional information related to the protocol being used when the &lt;Service&gt; attributes iana_protocol_number or/and iana_protocol_name are filed.">
<polygon fill="#ffcccc" stroke="none" points="9,-166 9,-186 270,-186 270,-166 9,-166"/>
<polygon fill="none" stroke="black" points="9,-166 9,-186 270,-186 270,-166 9,-166"/>
<text text-anchor="start" x="69" y="-172.8" font-family="Times,serif" font-size="14.00">[STRING] protocol (0..1)</text>
</a>
</g>
<g id="a_node2_12"><a xlink:href="IDMEF_NAV_LINK_TAG?idmef_class=Service" xlink:title="The name of the service. &#160;Whenever possible, the name from the IANA list of well&#45;known ports SHOULD be used.">
<polygon fill="#ffcccc" stroke="none" points="9,-146 9,-166 270,-166 270,-146 9,-146"/>
<polygon fill="none" stroke="black" points="9,-146 9,-166 270,-166 270,-146 9,-146"/>
<text text-anchor="start" x="76.5" y="-152.8" font-family="Times,serif" font-size="14.00">[STRING] name (0..1)</text>
</a>
</g>
<g id="a_node2_13"><a xlink:href="IDMEF_NAV_LINK_TAG?idmef_class=Service" xlink:title="The port number being used.">
<polygon fill="#ffcccc" stroke="none" points="9,-126 9,-146 270,-146 270,-126 9,-126"/>
<polygon fill="none" stroke="black" points="9,-126 9,-146 270,-146 270,-126 9,-126"/>
<text text-anchor="start" x="76" y="-132.8" font-family="Times,serif" font-size="14.00">[INTEGER] port (0..1)</text>
</a>
</g>
<g id="a_node2_14"><a xlink:href="IDMEF_NAV_LINK_TAG?idmef_class=Service" xlink:title="The IP version number.">
<polygon fill="#ffcccc" stroke="none" points="9,-106 9,-126 270,-126 270,-106 9,-106"/>
<polygon fill="none" stroke="black" points="9,-106 9,-126 270,-126 270,-106 9,-106"/>
<text text-anchor="start" x="45.5" y="-112.8" font-family="Times,serif" font-size="14.00">[INTEGER] ip_version (Optional)</text>
</a>
</g>
<g id="a_node2_15"><a xlink:href="IDMEF_NAV_LINK_TAG?idmef_class=Service" xlink:title="The IANA protocol name.">
<polygon fill="#ffcccc" stroke="none" points="9,-86 9,-106 270,-106 270,-86 9,-86"/>
<polygon fill="none" stroke="black" points="9,-86 9,-106 270,-106 270,-86 9,-86"/>
<text text-anchor="start" x="23" y="-92.8" font-family="Times,serif" font-size="14.00">[STRING] iana_protocol_name (Optional)</text>
</a>
</g>
<g id="a_node2_16"><a xlink:href="IDMEF_NAV_LINK_TAG?idmef_class=Service" xlink:title="A unique identifier for the service; see Section 3.2.9.">
<polygon fill="#ffcccc" stroke="none" points="9,-66 9,-86 270,-86 270,-66 9,-66"/>
<polygon fill="none" stroke="black" points="9,-66 9,-86 270,-86 270,-66 9,-66"/>
<text text-anchor="start" x="65" y="-72.8" font-family="Times,serif" font-size="14.00">[STRING] ident (Optional)</text>
</a>
</g>
<g id="a_node2_17"><a xlink:href="IDMEF_NAV_LINK_TAG?idmef_class=Service" xlink:title="The IANA protocol number.">
<polygon fill="#ffcccc" stroke="none" points="9,-46 9,-66 270,-66 270,-46 9,-46"/>
<polygon fill="none" stroke="black" points="9,-46 9,-66 270,-66 270,-46 9,-46"/>
<text text-anchor="start" x="12.5" y="-52.8" font-family="Times,serif" font-size="14.00">[INTEGER] iana_protocol_number (Optional)</text>
</a>
</g>
</g>
<!-- Service&#45;&gt;SNMPService -->
<g id="edge1" class="edge"><title>Service&#45;&gt;SNMPService</title>
<path fill="none" stroke="black" d="M287.508,-177.229C296.485,-179.678 305.491,-182.134 314.404,-184.565"/>
<polygon fill="none" stroke="black" points="278.706,-171.201 287.432,-177.209 276.864,-177.954 278.706,-171.201"/>
</g>
<!-- WebService -->
<g id="node3" class="node"><title>WebService</title>
<g id="a_node3_18"><a xlink:href="IDMEF_NAV_LINK_TAG?idmef_class=WebService" xlink:title="The WebService class carries additional information related to web traffic. ">
<polygon fill="#997a7a" stroke="none" points="364,-83 364,-104 534,-104 534,-83 364,-83"/>
<polygon fill="none" stroke="black" points="364,-83 364,-104 534,-104 534,-83 364,-83"/>
<text text-anchor="start" x="415.5" y="-90.3" font-family="Times,serif" font-size="14.00">WebService</text>
</a>
</g>
<g id="a_node3_19"><a xlink:href="IDMEF_NAV_LINK_TAG?idmef_class=WebService" xlink:title="The URL in the request.">
<polygon fill="#ffcccc" stroke="none" points="364,-63 364,-83 534,-83 534,-63 364,-63"/>
<polygon fill="none" stroke="black" points="364,-63 364,-83 534,-83 534,-63 364,-63"/>
<text text-anchor="start" x="400.5" y="-69.8" font-family="Times,serif" font-size="14.00">[STRING] url (1)</text>
</a>
</g>
<g id="a_node3_20"><a xlink:href="IDMEF_NAV_LINK_TAG?idmef_class=WebService" xlink:title="The CGI script in the request, without arguments.">
<polygon fill="#ffcccc" stroke="none" points="364,-43 364,-63 534,-63 534,-43 364,-43"/>
<polygon fill="none" stroke="black" points="364,-43 364,-63 534,-63 534,-43 364,-43"/>
<text text-anchor="start" x="393" y="-49.8" font-family="Times,serif" font-size="14.00">[STRING] cgi (0..1)</text>
</a>
</g>
<g id="a_node3_21"><a xlink:href="IDMEF_NAV_LINK_TAG?idmef_class=WebService" xlink:title="The HTTP method (PUT, GET) used in the request.">
<polygon fill="#ffcccc" stroke="none" points="364,-23 364,-43 534,-43 534,-23 364,-23"/>
<polygon fill="none" stroke="black" points="364,-23 364,-43 534,-43 534,-23 364,-23"/>
<text text-anchor="start" x="367.5" y="-29.8" font-family="Times,serif" font-size="14.00">[STRING] http&#45;method (0..1)</text>
</a>
</g>
<g id="a_node3_22"><a xlink:href="IDMEF_NAV_LINK_TAG?idmef_class=WebService" xlink:title="The arguments to the CGI script.">
<polygon fill="#ffcccc" stroke="none" points="364,-3 364,-23 534,-23 534,-3 364,-3"/>
<polygon fill="none" stroke="black" points="364,-3 364,-23 534,-23 534,-3 364,-3"/>
<text text-anchor="start" x="392.5" y="-9.8" font-family="Times,serif" font-size="14.00">[STRING] arg (0..*)</text>
</a>
</g>
</g>
<!-- Service&#45;&gt;WebService -->
<g id="edge2" class="edge"><title>Service&#45;&gt;WebService</title>
<path fill="none" stroke="black" d="M287.719,-97.1926C310.941,-90.9347 334.354,-84.6254 355.841,-78.8351"/>
<polygon fill="none" stroke="black" points="276.874,-96.4903 287.44,-97.2677 278.695,-103.249 276.874,-96.4903"/>
</g>
</g>
</svg>
