<?xml version="1.0" encoding="UTF-8" standalone="no"?>
<!DOCTYPE svg PUBLIC "-//W3C//DTD SVG 1.1//EN"
 "http://www.w3.org/Graphics/SVG/1.1/DTD/svg11.dtd">
<!-- Generated by graphviz version 2.30.1 (20180420.1509)
 -->
<!-- Title: SNMPService Pages: 1 -->
<svg width="278pt" height="196pt"
 viewBox="0.00 0.00 278.00 196.00" xmlns="http://www.w3.org/2000/svg" xmlns:xlink="http://www.w3.org/1999/xlink">
<g id="graph0" class="graph" transform="scale(1 1) rotate(0) translate(4 192)">
<title>SNMPService</title>
<!-- SNMPService -->
<g id="node1" class="node"><title>SNMPService</title>
<g id="a_node1_0"><a xlink:href="IDMEF_NAV_LINK_TAG?idmef_class=SNMPService" xlink:title="The SNMPService class carries additional information related to SNMP traffic. &#160;The aggregate classes composing SNMPService must be interpreted as described in RFC 3411 [15] and RFC 3584 [16]. ">
<polygon fill="#997a7a" stroke="none" points="9,-163 9,-184 262,-184 262,-163 9,-163"/>
<polygon fill="none" stroke="black" points="9,-163 9,-184 262,-184 262,-163 9,-163"/>
<text text-anchor="start" x="96" y="-170.3" font-family="Times,serif" font-size="14.00">SNMPService</text>
</a>
</g>
<g id="a_node1_1"><a xlink:href="IDMEF_NAV_LINK_TAG?idmef_class=SNMPService" xlink:title="The security level of the SNMP request; see RFC 3411 [15] Section 3.4.3.">
<polygon fill="#ffcccc" stroke="none" points="9,-143 9,-163 262,-163 262,-143 9,-143"/>
<polygon fill="none" stroke="black" points="9,-143 9,-163 262,-163 262,-143 9,-143"/>
<text text-anchor="start" x="46.5" y="-149.8" font-family="Times,serif" font-size="14.00">[INTEGER] securityLevel (0..1)</text>
</a>
</g>
<g id="a_node1_2"><a xlink:href="IDMEF_NAV_LINK_TAG?idmef_class=SNMPService" xlink:title="The object&#39;s context name; see RFC 3411 [15] Section 3.3.3.">
<polygon fill="#ffcccc" stroke="none" points="9,-123 9,-143 262,-143 262,-123 9,-123"/>
<polygon fill="none" stroke="black" points="9,-123 9,-143 262,-143 262,-123 9,-123"/>
<text text-anchor="start" x="51" y="-129.8" font-family="Times,serif" font-size="14.00">[STRING] contextName (0..1)</text>
</a>
</g>
<g id="a_node1_3"><a xlink:href="IDMEF_NAV_LINK_TAG?idmef_class=SNMPService" xlink:title="The object&#39;s context engine identifier; see RFC 3411 [15] Section 3.3.2.">
<polygon fill="#ffcccc" stroke="none" points="9,-103 9,-123 262,-123 262,-103 9,-103"/>
<polygon fill="none" stroke="black" points="9,-103 9,-123 262,-123 262,-103 9,-103"/>
<text text-anchor="start" x="41.5" y="-109.8" font-family="Times,serif" font-size="14.00">[STRING] contextEngineID (0..1)</text>
</a>
</g>
<g id="a_node1_4"><a xlink:href="IDMEF_NAV_LINK_TAG?idmef_class=SNMPService" xlink:title="The object identifier in the request.">
<polygon fill="#ffcccc" stroke="none" points="9,-83 9,-103 262,-103 262,-83 9,-83"/>
<polygon fill="none" stroke="black" points="9,-83 9,-103 262,-103 262,-83 9,-83"/>
<text text-anchor="start" x="79" y="-89.8" font-family="Times,serif" font-size="14.00">[STRING] oid (0..1)</text>
</a>
</g>
<g id="a_node1_5"><a xlink:href="IDMEF_NAV_LINK_TAG?idmef_class=SNMPService" xlink:title="The SNMP version, typically 0 for SNMPv1, 1 for SNMPv2c, 2 for SNMPv2u and SNMPv2*, and 3 for SNMPv3; see RFC 3411 [15] Section 5 for appropriate values.">
<polygon fill="#ffcccc" stroke="none" points="9,-63 9,-83 262,-83 262,-63 9,-63"/>
<polygon fill="none" stroke="black" points="9,-63 9,-83 262,-83 262,-63 9,-63"/>
<text text-anchor="start" x="12.5" y="-69.8" font-family="Times,serif" font-size="14.00">[INTEGER] messageProcessingModel (0..1)</text>
</a>
</g>
<g id="a_node1_6"><a xlink:href="IDMEF_NAV_LINK_TAG?idmef_class=SNMPService" xlink:title="The command sent to the SNMP server (GET, SET, etc.).">
<polygon fill="#ffcccc" stroke="none" points="9,-43 9,-63 262,-63 262,-43 9,-43"/>
<polygon fill="none" stroke="black" points="9,-43 9,-63 262,-63 262,-43 9,-43"/>
<text text-anchor="start" x="60" y="-49.8" font-family="Times,serif" font-size="14.00">[STRING] command (0..1)</text>
</a>
</g>
<g id="a_node1_7"><a xlink:href="IDMEF_NAV_LINK_TAG?idmef_class=SNMPService" xlink:title="The object&#39;s security name; see RFC 3411 [15] Section 3.2.2.">
<polygon fill="#ffcccc" stroke="none" points="9,-23 9,-43 262,-43 262,-23 9,-23"/>
<polygon fill="none" stroke="black" points="9,-23 9,-43 262,-43 262,-23 9,-23"/>
<text text-anchor="start" x="49.5" y="-29.8" font-family="Times,serif" font-size="14.00">[STRING] securityName (0..1)</text>
</a>
</g>
<g id="a_node1_8"><a xlink:href="IDMEF_NAV_LINK_TAG?idmef_class=SNMPService" xlink:title="The identification of the security model in use, typically 0 for any, 1 for SNMPv1, 2 for SNMPv2c, and 3 for USM; see RFC 3411 [15] Section 5 for appropriate values.">
<polygon fill="#ffcccc" stroke="none" points="9,-3 9,-23 262,-23 262,-3 9,-3"/>
<polygon fill="none" stroke="black" points="9,-3 9,-23 262,-23 262,-3 9,-3"/>
<text text-anchor="start" x="43.5" y="-9.8" font-family="Times,serif" font-size="14.00">[INTEGER] securityModel (0..1)</text>
</a>
</g>
</g>
</g>
</svg>
