<?xml version="1.0" encoding="UTF-8" standalone="no"?>
<!DOCTYPE svg PUBLIC "-//W3C//DTD SVG 1.1//EN"
 "http://www.w3.org/Graphics/SVG/1.1/DTD/svg11.dtd">
<!-- Generated by graphviz version 2.30.1 (20180420.1509)
 -->
<!-- Title: Source Pages: 1 -->
<svg width="864pt" height="739pt"
 viewBox="0.00 0.00 864.00 739.00" xmlns="http://www.w3.org/2000/svg" xmlns:xlink="http://www.w3.org/1999/xlink">
<g id="graph0" class="graph" transform="scale(1 1) rotate(0) translate(4 735)">
<title>Source</title>
<!-- Address -->
<g id="node1" class="node"><title>Address</title>
<g id="a_node1_0"><a xlink:href="IDMEF_NAV_LINK_TAG?idmef_class=Address" xlink:title="The Address class is used to represent network, hardware, and application addresses. ">
<polygon fill="#007a00" stroke="none" points="626,-706 626,-727 817,-727 817,-706 626,-706"/>
<polygon fill="none" stroke="black" points="626,-706 626,-727 817,-727 817,-706 626,-706"/>
<text text-anchor="start" x="699" y="-713.3" font-family="Times,serif" font-size="14.00">Address</text>
</a>
</g>
<g id="a_node1_1"><a xlink:href="IDMEF_NAV_LINK_TAG?idmef_class=Address" xlink:title="The network mask for the address, if appropriate.">
<polygon fill="#00cc00" stroke="none" points="626,-686 626,-706 817,-706 817,-686 626,-686"/>
<polygon fill="none" stroke="black" points="626,-686 626,-706 817,-706 817,-686 626,-686"/>
<text text-anchor="start" x="650.5" y="-692.8" font-family="Times,serif" font-size="14.00">[STRING] netmask (0..1)</text>
</a>
</g>
<g id="a_node1_2"><a xlink:href="IDMEF_NAV_LINK_TAG?idmef_class=Address" xlink:title="The address information. &#160;The format of this data is governed by the category attribute.">
<polygon fill="#00cc00" stroke="none" points="626,-666 626,-686 817,-686 817,-666 626,-666"/>
<polygon fill="none" stroke="black" points="626,-666 626,-686 817,-686 817,-666 626,-666"/>
<text text-anchor="start" x="660.5" y="-672.8" font-family="Times,serif" font-size="14.00">[STRING] address (1)</text>
</a>
</g>
<g id="a_node1_3"><a xlink:href="IDMEF_NAV_LINK_TAG?idmef_class=Address" xlink:title="The type of address represented. &#160;The permitted values for this attribute are shown below. &#160;The default value is &quot;unknown&quot;. &#160;(See also Section 10.)">
<polygon fill="#00cc00" stroke="none" points="626,-646 626,-666 817,-666 817,-646 626,-646"/>
<polygon fill="none" stroke="black" points="626,-646 626,-666 817,-666 817,-646 626,-646"/>
<text text-anchor="start" x="641.5" y="-652.8" font-family="Times,serif" font-size="14.00">[ENUM] category (Optional)</text>
</a>
</g>
<g id="a_node1_4"><a xlink:href="IDMEF_NAV_LINK_TAG?idmef_class=Address" xlink:title="The name of the Virtual LAN to which the address belongs.">
<polygon fill="#00cc00" stroke="none" points="626,-626 626,-646 817,-646 817,-626 626,-626"/>
<polygon fill="none" stroke="black" points="626,-626 626,-646 817,-646 817,-626 626,-626"/>
<text text-anchor="start" x="631.5" y="-632.8" font-family="Times,serif" font-size="14.00">[STRING] vlan&#45;name (Optional)</text>
</a>
</g>
<g id="a_node1_5"><a xlink:href="IDMEF_NAV_LINK_TAG?idmef_class=Address" xlink:title="The number of the Virtual LAN to which the address belongs.">
<polygon fill="#00cc00" stroke="none" points="626,-606 626,-626 817,-626 817,-606 626,-606"/>
<polygon fill="none" stroke="black" points="626,-606 626,-626 817,-626 817,-606 626,-606"/>
<text text-anchor="start" x="629.5" y="-612.8" font-family="Times,serif" font-size="14.00">[INTEGER] vlan&#45;num (Optional)</text>
</a>
</g>
<g id="a_node1_6"><a xlink:href="IDMEF_NAV_LINK_TAG?idmef_class=Address" xlink:title="A unique identifier for the address; see Section 3.2.9.">
<polygon fill="#00cc00" stroke="none" points="626,-586 626,-606 817,-606 817,-586 626,-586"/>
<polygon fill="none" stroke="black" points="626,-586 626,-606 817,-606 817,-586 626,-586"/>
<text text-anchor="start" x="647" y="-592.8" font-family="Times,serif" font-size="14.00">[STRING] ident (Optional)</text>
</a>
</g>
</g>
<!-- Node -->
<g id="node2" class="node"><title>Node</title>
<g id="a_node2_7"><a xlink:href="IDMEF_NAV_LINK_TAG?idmef_class=Node" xlink:title="The Node class is used to identify hosts and other network devices (routers, switches, etc.). ">
<polygon fill="#007a00" stroke="none" points="306,-686 306,-707 473,-707 473,-686 306,-686"/>
<polygon fill="none" stroke="black" points="306,-686 306,-707 473,-707 473,-686 306,-686"/>
<text text-anchor="start" x="374.5" y="-693.3" font-family="Times,serif" font-size="14.00">Node</text>
</a>
</g>
<g id="a_node2_8"><a xlink:href="IDMEF_NAV_LINK_TAG?idmef_class=Node" xlink:title="The location of the equipment.">
<polygon fill="#00cc00" stroke="none" points="306,-666 306,-686 473,-686 473,-666 306,-666"/>
<polygon fill="none" stroke="black" points="306,-666 306,-686 473,-686 473,-666 306,-666"/>
<text text-anchor="start" x="320" y="-672.8" font-family="Times,serif" font-size="14.00">[STRING] location (0..1)</text>
</a>
</g>
<g id="a_node2_9"><a xlink:href="IDMEF_NAV_LINK_TAG?idmef_class=Node" xlink:title="The name of the equipment. &#160;This information MUST be provided if no Address information is given.">
<polygon fill="#00cc00" stroke="none" points="306,-646 306,-666 473,-666 473,-646 306,-646"/>
<polygon fill="none" stroke="black" points="306,-646 306,-666 473,-666 473,-646 306,-646"/>
<text text-anchor="start" x="326.5" y="-652.8" font-family="Times,serif" font-size="14.00">[STRING] name (0..1)</text>
</a>
</g>
<g id="a_node2_10"><a xlink:href="IDMEF_NAV_LINK_TAG?idmef_class=Node" xlink:title="The &quot;domain&quot; from which the name information was obtained, if relevant. &#160;The permitted values for this attribute are shown in the table below. &#160;The default value is &quot;unknown&quot;. (See also Section 10 for extensions to the table.)">
<polygon fill="#00cc00" stroke="none" points="306,-626 306,-646 473,-646 473,-626 306,-626"/>
<polygon fill="none" stroke="black" points="306,-626 306,-646 473,-646 473,-626 306,-626"/>
<text text-anchor="start" x="309.5" y="-632.8" font-family="Times,serif" font-size="14.00">[ENUM] category (Optional)</text>
</a>
</g>
<g id="a_node2_11"><a xlink:href="IDMEF_NAV_LINK_TAG?idmef_class=Node" xlink:title="A unique identifier for the node; see Section 3.2.9.">
<polygon fill="#00cc00" stroke="none" points="306,-606 306,-626 473,-626 473,-606 306,-606"/>
<polygon fill="none" stroke="black" points="306,-606 306,-626 473,-626 473,-606 306,-606"/>
<text text-anchor="start" x="315" y="-612.8" font-family="Times,serif" font-size="14.00">[STRING] ident (Optional)</text>
</a>
</g>
</g>
<!-- Node&#45;&gt;Address -->
<g id="edge1" class="edge"><title>Node&#45;&gt;Address</title>
<path fill="none" stroke="black" d="M480.61,-657C519.743,-657 565.936,-657 607.254,-657"/>
<polygon fill="black" stroke="black" points="607.368,-660.5 617.368,-657 607.368,-653.5 607.368,-660.5"/>
<text text-anchor="middle" x="557" y="-660.8" font-family="Times,serif" font-size="14.00">0..*</text>
</g>
<!-- Source -->
<g id="node3" class="node"><title>Source</title>
<g id="a_node3_12"><a xlink:href="IDMEF_NAV_LINK_TAG?idmef_class=Source" xlink:title="The Source class contains information about the possible source(s) of the event(s) that generated an alert. &#160;An event may have more than one source (e.g., in a distributed denial&#45;of&#45;service attack). ">
<polygon fill="#182f5f" stroke="none" points="8,-487 8,-508 184,-508 184,-487 8,-487"/>
<polygon fill="none" stroke="black" points="8,-487 8,-508 184,-508 184,-487 8,-487"/>
<text text-anchor="start" x="77" y="-494.3" font-family="Times,serif" font-size="14.00">Source</text>
</a>
</g>
<g id="a_node3_13"><a xlink:href="IDMEF_NAV_LINK_TAG?idmef_class=Source" xlink:title="May be used by a network&#45;based analyzer with multiple interfaces to indicate which interface this source was seen on.">
<polygon fill="#284f9f" stroke="none" points="8,-467 8,-487 184,-487 184,-467 8,-467"/>
<polygon fill="none" stroke="black" points="8,-467 8,-487 184,-487 184,-467 8,-467"/>
<text text-anchor="start" x="11.5" y="-473.8" font-family="Times,serif" font-size="14.00">[STRING] interface (Optional)</text>
</a>
</g>
<g id="a_node3_14"><a xlink:href="IDMEF_NAV_LINK_TAG?idmef_class=Source" xlink:title="A unique identifier for this source; see Section 3.2.9.">
<polygon fill="#284f9f" stroke="none" points="8,-447 8,-467 184,-467 184,-447 8,-447"/>
<polygon fill="none" stroke="black" points="8,-447 8,-467 184,-467 184,-447 8,-447"/>
<text text-anchor="start" x="21.5" y="-453.8" font-family="Times,serif" font-size="14.00">[STRING] ident (Optional)</text>
</a>
</g>
<g id="a_node3_15"><a xlink:href="IDMEF_NAV_LINK_TAG?idmef_class=Source" xlink:title="An indication of whether the source is, as far as the analyzer can determine, a spoofed address used for hiding the real origin of the attack. &#160;The permitted values for this attribute are shown below. &#160;The default value is &quot;unknown&quot;. &#160;(See also Section 10.)">
<polygon fill="#284f9f" stroke="none" points="8,-427 8,-447 184,-447 184,-427 8,-427"/>
<polygon fill="none" stroke="black" points="8,-427 8,-447 184,-447 184,-427 8,-427"/>
<text text-anchor="start" x="17.5" y="-433.8" font-family="Times,serif" font-size="14.00">[ENUM] spoofed (Optional)</text>
</a>
</g>
</g>
<!-- Source&#45;&gt;Node -->
<g id="edge2" class="edge"><title>Source&#45;&gt;Node</title>
<path fill="none" stroke="black" d="M144.918,-512.424C173.945,-537.954 212.502,-569.51 250,-593 262.002,-600.518 275.031,-607.695 288.13,-614.343"/>
<polygon fill="black" stroke="black" points="286.686,-617.535 297.198,-618.86 289.807,-611.269 286.686,-617.535"/>
<text text-anchor="middle" x="221" y="-581.8" font-family="Times,serif" font-size="14.00">0..1</text>
</g>
<!-- Process -->
<g id="node4" class="node"><title>Process</title>
<g id="a_node4_16"><a xlink:href="IDMEF_NAV_LINK_TAG?idmef_class=Process" xlink:title="The Process class is used to describe processes being executed on sources, targets, and analyzers. ">
<polygon fill="#997a3d" stroke="none" points="311,-559 311,-580 467,-580 467,-559 311,-559"/>
<polygon fill="none" stroke="black" points="311,-559 311,-580 467,-580 467,-559 311,-559"/>
<text text-anchor="start" x="368" y="-566.3" font-family="Times,serif" font-size="14.00">Process</text>
</a>
</g>
<g id="a_node4_17"><a xlink:href="IDMEF_NAV_LINK_TAG?idmef_class=Process" xlink:title="The full path of the program being executed.">
<polygon fill="#ffcc66" stroke="none" points="311,-539 311,-559 467,-559 467,-539 311,-539"/>
<polygon fill="none" stroke="black" points="311,-539 311,-559 467,-559 467,-539 311,-539"/>
<text text-anchor="start" x="329.5" y="-545.8" font-family="Times,serif" font-size="14.00">[STRING] path (0..1)</text>
</a>
</g>
<g id="a_node4_18"><a xlink:href="IDMEF_NAV_LINK_TAG?idmef_class=Process" xlink:title="The process identifier of the process.">
<polygon fill="#ffcc66" stroke="none" points="311,-519 311,-539 467,-539 467,-519 311,-519"/>
<polygon fill="none" stroke="black" points="311,-519 311,-539 467,-539 467,-519 311,-519"/>
<text text-anchor="start" x="328" y="-525.8" font-family="Times,serif" font-size="14.00">[INTEGER] pid (0..1)</text>
</a>
</g>
<g id="a_node4_19"><a xlink:href="IDMEF_NAV_LINK_TAG?idmef_class=Process" xlink:title="The name of the program being executed. This is a short name; path and argument information are provided elsewhere.">
<polygon fill="#ffcc66" stroke="none" points="311,-499 311,-519 467,-519 467,-499 311,-499"/>
<polygon fill="none" stroke="black" points="311,-499 311,-519 467,-519 467,-499 311,-499"/>
<text text-anchor="start" x="333" y="-505.8" font-family="Times,serif" font-size="14.00">[STRING] name (1)</text>
</a>
</g>
<g id="a_node4_20"><a xlink:href="IDMEF_NAV_LINK_TAG?idmef_class=Process" xlink:title="An environment string associated with the process; generally of the format &quot;VARIABLE=value&quot;. &#160;Multiple environment strings may be specified with multiple uses of env.">
<polygon fill="#ffcc66" stroke="none" points="311,-479 311,-499 467,-499 467,-479 311,-479"/>
<polygon fill="none" stroke="black" points="311,-479 311,-499 467,-499 467,-479 311,-479"/>
<text text-anchor="start" x="331.5" y="-485.8" font-family="Times,serif" font-size="14.00">[STRING] env (0..*)</text>
</a>
</g>
<g id="a_node4_21"><a xlink:href="IDMEF_NAV_LINK_TAG?idmef_class=Process" xlink:title="A command&#45;line argument to the program. Multiple arguments may be specified (they are assumed to have occurred in the same order they are provided) with multiple uses of arg.">
<polygon fill="#ffcc66" stroke="none" points="311,-459 311,-479 467,-479 467,-459 311,-459"/>
<polygon fill="none" stroke="black" points="311,-459 311,-479 467,-479 467,-459 311,-459"/>
<text text-anchor="start" x="332.5" y="-465.8" font-family="Times,serif" font-size="14.00">[STRING] arg (0..*)</text>
</a>
</g>
<g id="a_node4_22"><a xlink:href="IDMEF_NAV_LINK_TAG?idmef_class=Process" xlink:title="A unique identifier for the process; see Section 3.2.9.">
<polygon fill="#ffcc66" stroke="none" points="311,-439 311,-459 467,-459 467,-439 311,-439"/>
<polygon fill="none" stroke="black" points="311,-439 311,-459 467,-459 467,-439 311,-439"/>
<text text-anchor="start" x="314.5" y="-445.8" font-family="Times,serif" font-size="14.00">[STRING] ident (Optional)</text>
</a>
</g>
</g>
<!-- Source&#45;&gt;Process -->
<g id="edge3" class="edge"><title>Source&#45;&gt;Process</title>
<path fill="none" stroke="black" d="M192.284,-481.752C224.442,-486.394 260.33,-491.573 292.504,-496.217"/>
<polygon fill="black" stroke="black" points="292.412,-499.74 302.81,-497.705 293.412,-492.812 292.412,-499.74"/>
<text text-anchor="middle" x="221" y="-489.8" font-family="Times,serif" font-size="14.00">0..1</text>
</g>
<!-- User -->
<g id="node6" class="node"><title>User</title>
<g id="a_node6_23"><a xlink:href="IDMEF_NAV_LINK_TAG?idmef_class=User" xlink:title="The User class is used to describe users. &#160;It is primarily used as a &quot;container&quot; class for the UserId aggregate class, as shown in Figure 16. ">
<polygon fill="#3d7a99" stroke="none" points="306,-392 306,-413 473,-413 473,-392 306,-392"/>
<polygon fill="none" stroke="black" points="306,-392 306,-413 473,-413 473,-392 306,-392"/>
<text text-anchor="start" x="376.5" y="-399.3" font-family="Times,serif" font-size="14.00">User</text>
</a>
</g>
<g id="a_node6_24"><a xlink:href="IDMEF_NAV_LINK_TAG?idmef_class=User" xlink:title="The type of user represented. &#160;The permitted values for this attribute are shown below. &#160;The default value is &quot;unknown&quot;. (See also Section 10.)">
<polygon fill="#66ccff" stroke="none" points="306,-372 306,-392 473,-392 473,-372 306,-372"/>
<polygon fill="none" stroke="black" points="306,-372 306,-392 473,-392 473,-372 306,-372"/>
<text text-anchor="start" x="309.5" y="-378.8" font-family="Times,serif" font-size="14.00">[ENUM] category (Optional)</text>
</a>
</g>
<g id="a_node6_25"><a xlink:href="IDMEF_NAV_LINK_TAG?idmef_class=User" xlink:title="A unique identifier for the user; see Section 3.2.9.">
<polygon fill="#66ccff" stroke="none" points="306,-352 306,-372 473,-372 473,-352 306,-352"/>
<polygon fill="none" stroke="black" points="306,-352 306,-372 473,-372 473,-352 306,-352"/>
<text text-anchor="start" x="315" y="-358.8" font-family="Times,serif" font-size="14.00">[STRING] ident (Optional)</text>
</a>
</g>
</g>
<!-- Source&#45;&gt;User -->
<g id="edge5" class="edge"><title>Source&#45;&gt;User</title>
<path fill="none" stroke="black" d="M192.284,-440.168C222.797,-431.255 256.667,-421.362 287.537,-412.345"/>
<polygon fill="black" stroke="black" points="288.829,-415.614 297.446,-409.45 286.866,-408.895 288.829,-415.614"/>
<text text-anchor="middle" x="221" y="-436.8" font-family="Times,serif" font-size="14.00">0..1</text>
</g>
<!-- Service -->
<g id="node8" class="node"><title>Service</title>
<g id="a_node8_26"><a xlink:href="IDMEF_NAV_LINK_TAG?idmef_class=Service" xlink:title="The Service class describes network services on sources and targets. It can identify services by name, port, and protocol. &#160;When Service occurs as an aggregate class of Source, it is understood that the service is one from which activity of interest is originating; and that the service is &quot;attached&quot; to the Node, Process, and User information also contained in Source. &#160;Likewise, when Service occurs as an aggregate class of Target, it is understood that the service is one to which activity of interest is being directed; and that the service is &quot;attached&quot; to the Node, Process, and User information also contained in Target. &#160;If Service occurs in both Source and Target, then information in both locations should be the same. &#160;If information is the same in both locations and implementers wish to carry it in only one location, they should specify it as an aggregate of the Target class. ">
<polygon fill="#997a7a" stroke="none" points="259,-290 259,-311 520,-311 520,-290 259,-290"/>
<polygon fill="none" stroke="black" points="259,-290 259,-311 520,-311 520,-290 259,-290"/>
<text text-anchor="start" x="369" y="-297.3" font-family="Times,serif" font-size="14.00">Service</text>
</a>
</g>
<g id="a_node8_27"><a xlink:href="IDMEF_NAV_LINK_TAG?idmef_class=Service" xlink:title="A list of port numbers being used; see Section 3.2.8 for formatting rules. &#160;If a portlist is given, the iana_protocol_number and iana_protocol_name MUST apply to all the elements of the list.">
<polygon fill="#ffcccc" stroke="none" points="259,-270 259,-290 520,-290 520,-270 259,-270"/>
<polygon fill="none" stroke="black" points="259,-270 259,-290 520,-290 520,-270 259,-270"/>
<text text-anchor="start" x="315.5" y="-276.8" font-family="Times,serif" font-size="14.00">[PORTLIST] portlist (0..1)</text>
</a>
</g>
<g id="a_node8_28"><a xlink:href="IDMEF_NAV_LINK_TAG?idmef_class=Service" xlink:title="Additional information about the protocol being used. &#160;The intent of the protocol field is to carry additional information related to the protocol being used when the &lt;Service&gt; attributes iana_protocol_number or/and iana_protocol_name are filed.">
<polygon fill="#ffcccc" stroke="none" points="259,-250 259,-270 520,-270 520,-250 259,-250"/>
<polygon fill="none" stroke="black" points="259,-250 259,-270 520,-270 520,-250 259,-250"/>
<text text-anchor="start" x="319" y="-256.8" font-family="Times,serif" font-size="14.00">[STRING] protocol (0..1)</text>
</a>
</g>
<g id="a_node8_29"><a xlink:href="IDMEF_NAV_LINK_TAG?idmef_class=Service" xlink:title="The name of the service. &#160;Whenever possible, the name from the IANA list of well&#45;known ports SHOULD be used.">
<polygon fill="#ffcccc" stroke="none" points="259,-230 259,-250 520,-250 520,-230 259,-230"/>
<polygon fill="none" stroke="black" points="259,-230 259,-250 520,-250 520,-230 259,-230"/>
<text text-anchor="start" x="326.5" y="-236.8" font-family="Times,serif" font-size="14.00">[STRING] name (0..1)</text>
</a>
</g>
<g id="a_node8_30"><a xlink:href="IDMEF_NAV_LINK_TAG?idmef_class=Service" xlink:title="The port number being used.">
<polygon fill="#ffcccc" stroke="none" points="259,-210 259,-230 520,-230 520,-210 259,-210"/>
<polygon fill="none" stroke="black" points="259,-210 259,-230 520,-230 520,-210 259,-210"/>
<text text-anchor="start" x="326" y="-216.8" font-family="Times,serif" font-size="14.00">[INTEGER] port (0..1)</text>
</a>
</g>
<g id="a_node8_31"><a xlink:href="IDMEF_NAV_LINK_TAG?idmef_class=Service" xlink:title="The IP version number.">
<polygon fill="#ffcccc" stroke="none" points="259,-190 259,-210 520,-210 520,-190 259,-190"/>
<polygon fill="none" stroke="black" points="259,-190 259,-210 520,-210 520,-190 259,-190"/>
<text text-anchor="start" x="295.5" y="-196.8" font-family="Times,serif" font-size="14.00">[INTEGER] ip_version (Optional)</text>
</a>
</g>
<g id="a_node8_32"><a xlink:href="IDMEF_NAV_LINK_TAG?idmef_class=Service" xlink:title="The IANA protocol name.">
<polygon fill="#ffcccc" stroke="none" points="259,-170 259,-190 520,-190 520,-170 259,-170"/>
<polygon fill="none" stroke="black" points="259,-170 259,-190 520,-190 520,-170 259,-170"/>
<text text-anchor="start" x="273" y="-176.8" font-family="Times,serif" font-size="14.00">[STRING] iana_protocol_name (Optional)</text>
</a>
</g>
<g id="a_node8_33"><a xlink:href="IDMEF_NAV_LINK_TAG?idmef_class=Service" xlink:title="A unique identifier for the service; see Section 3.2.9.">
<polygon fill="#ffcccc" stroke="none" points="259,-150 259,-170 520,-170 520,-150 259,-150"/>
<polygon fill="none" stroke="black" points="259,-150 259,-170 520,-170 520,-150 259,-150"/>
<text text-anchor="start" x="315" y="-156.8" font-family="Times,serif" font-size="14.00">[STRING] ident (Optional)</text>
</a>
</g>
<g id="a_node8_34"><a xlink:href="IDMEF_NAV_LINK_TAG?idmef_class=Service" xlink:title="The IANA protocol number.">
<polygon fill="#ffcccc" stroke="none" points="259,-130 259,-150 520,-150 520,-130 259,-130"/>
<polygon fill="none" stroke="black" points="259,-130 259,-150 520,-150 520,-130 259,-130"/>
<text text-anchor="start" x="262.5" y="-136.8" font-family="Times,serif" font-size="14.00">[INTEGER] iana_protocol_number (Optional)</text>
</a>
</g>
</g>
<!-- Source&#45;&gt;Service -->
<g id="edge8" class="edge"><title>Source&#45;&gt;Service</title>
<path fill="none" stroke="black" d="M149.361,-423.556C182.712,-395.248 227.326,-357.379 268.952,-322.048"/>
<polygon fill="black" stroke="black" points="271.327,-324.623 276.686,-315.483 266.797,-319.286 271.327,-324.623"/>
<text text-anchor="middle" x="221" y="-369.8" font-family="Times,serif" font-size="14.00">0..1</text>
</g>
<!-- UserId -->
<g id="node5" class="node"><title>UserId</title>
<g id="a_node5_35"><a xlink:href="IDMEF_NAV_LINK_TAG?idmef_class=UserId" xlink:title="The UserId class provides specific information about a user. &#160;More than one UserId can be used within the User class to indicate attempts to transition from one user to another, or to provide complete information about a user&#39;s (or process&#39;) privileges. ">
<polygon fill="#3d7a99" stroke="none" points="643,-437 643,-458 799,-458 799,-437 643,-437"/>
<polygon fill="none" stroke="black" points="643,-437 643,-458 799,-458 799,-437 643,-437"/>
<text text-anchor="start" x="702.5" y="-444.3" font-family="Times,serif" font-size="14.00">UserId</text>
</a>
</g>
<g id="a_node5_36"><a xlink:href="IDMEF_NAV_LINK_TAG?idmef_class=UserId" xlink:title="A user or group name.">
<polygon fill="#66ccff" stroke="none" points="643,-417 643,-437 799,-437 799,-417 643,-417"/>
<polygon fill="none" stroke="black" points="643,-417 643,-437 799,-437 799,-417 643,-417"/>
<text text-anchor="start" x="658" y="-423.8" font-family="Times,serif" font-size="14.00">[STRING] name (0..1)</text>
</a>
</g>
<g id="a_node5_37"><a xlink:href="IDMEF_NAV_LINK_TAG?idmef_class=UserId" xlink:title="A user or group number.">
<polygon fill="#66ccff" stroke="none" points="643,-397 643,-417 799,-417 799,-397 643,-397"/>
<polygon fill="none" stroke="black" points="643,-397 643,-417 799,-417 799,-397 643,-397"/>
<text text-anchor="start" x="647.5" y="-403.8" font-family="Times,serif" font-size="14.00">[INTEGER] number (0..1)</text>
</a>
</g>
<g id="a_node5_38"><a xlink:href="IDMEF_NAV_LINK_TAG?idmef_class=UserId" xlink:title="The tty the user is using.">
<polygon fill="#66ccff" stroke="none" points="643,-377 643,-397 799,-397 799,-377 643,-377"/>
<polygon fill="none" stroke="black" points="643,-377 643,-397 799,-397 799,-377 643,-377"/>
<text text-anchor="start" x="653" y="-383.8" font-family="Times,serif" font-size="14.00">[STRING] tty (Optional)</text>
</a>
</g>
<g id="a_node5_39"><a xlink:href="IDMEF_NAV_LINK_TAG?idmef_class=UserId" xlink:title="A unique identifier for the user id, see Section 3.2.9.">
<polygon fill="#66ccff" stroke="none" points="643,-357 643,-377 799,-377 799,-357 643,-357"/>
<polygon fill="none" stroke="black" points="643,-357 643,-377 799,-377 799,-357 643,-357"/>
<text text-anchor="start" x="646.5" y="-363.8" font-family="Times,serif" font-size="14.00">[STRING] ident (Optional)</text>
</a>
</g>
<g id="a_node5_40"><a xlink:href="IDMEF_NAV_LINK_TAG?idmef_class=UserId" xlink:title="The type of user information represented. &#160;The permitted values for this attribute are shown below. &#160;The default value is &quot;original&#45;user&quot;. &#160;(See also Section 10.)">
<polygon fill="#66ccff" stroke="none" points="643,-337 643,-357 799,-357 799,-337 643,-337"/>
<polygon fill="none" stroke="black" points="643,-337 643,-357 799,-357 799,-337 643,-337"/>
<text text-anchor="start" x="652.5" y="-343.8" font-family="Times,serif" font-size="14.00">[ENUM] type (Optional)</text>
</a>
</g>
</g>
<!-- User&#45;&gt;UserId -->
<g id="edge4" class="edge"><title>User&#45;&gt;UserId</title>
<path fill="none" stroke="black" d="M480.61,-387.119C525.402,-389.155 579.443,-391.611 624.836,-393.674"/>
<polygon fill="black" stroke="black" points="624.831,-397.178 634.98,-394.135 625.149,-390.185 624.831,-397.178"/>
<text text-anchor="middle" x="557" y="-393.8" font-family="Times,serif" font-size="14.00">1..*</text>
</g>
<!-- SNMPService -->
<g id="node7" class="node"><title>SNMPService</title>
<g id="a_node7_41"><a xlink:href="IDMEF_NAV_LINK_TAG?idmef_class=SNMPService" xlink:title="The SNMPService class carries additional information related to SNMP traffic. &#160;The aggregate classes composing SNMPService must be interpreted as described in RFC 3411 [15] and RFC 3584 [16]. ">
<polygon fill="#997a7a" stroke="none" points="595,-290 595,-311 848,-311 848,-290 595,-290"/>
<polygon fill="none" stroke="black" points="595,-290 595,-311 848,-311 848,-290 595,-290"/>
<text text-anchor="start" x="682" y="-297.3" font-family="Times,serif" font-size="14.00">SNMPService</text>
</a>
</g>
<g id="a_node7_42"><a xlink:href="IDMEF_NAV_LINK_TAG?idmef_class=SNMPService" xlink:title="The security level of the SNMP request; see RFC 3411 [15] Section 3.4.3.">
<polygon fill="#ffcccc" stroke="none" points="595,-270 595,-290 848,-290 848,-270 595,-270"/>
<polygon fill="none" stroke="black" points="595,-270 595,-290 848,-290 848,-270 595,-270"/>
<text text-anchor="start" x="632.5" y="-276.8" font-family="Times,serif" font-size="14.00">[INTEGER] securityLevel (0..1)</text>
</a>
</g>
<g id="a_node7_43"><a xlink:href="IDMEF_NAV_LINK_TAG?idmef_class=SNMPService" xlink:title="The object&#39;s context name; see RFC 3411 [15] Section 3.3.3.">
<polygon fill="#ffcccc" stroke="none" points="595,-250 595,-270 848,-270 848,-250 595,-250"/>
<polygon fill="none" stroke="black" points="595,-250 595,-270 848,-270 848,-250 595,-250"/>
<text text-anchor="start" x="637" y="-256.8" font-family="Times,serif" font-size="14.00">[STRING] contextName (0..1)</text>
</a>
</g>
<g id="a_node7_44"><a xlink:href="IDMEF_NAV_LINK_TAG?idmef_class=SNMPService" xlink:title="The object&#39;s context engine identifier; see RFC 3411 [15] Section 3.3.2.">
<polygon fill="#ffcccc" stroke="none" points="595,-230 595,-250 848,-250 848,-230 595,-230"/>
<polygon fill="none" stroke="black" points="595,-230 595,-250 848,-250 848,-230 595,-230"/>
<text text-anchor="start" x="627.5" y="-236.8" font-family="Times,serif" font-size="14.00">[STRING] contextEngineID (0..1)</text>
</a>
</g>
<g id="a_node7_45"><a xlink:href="IDMEF_NAV_LINK_TAG?idmef_class=SNMPService" xlink:title="The object identifier in the request.">
<polygon fill="#ffcccc" stroke="none" points="595,-210 595,-230 848,-230 848,-210 595,-210"/>
<polygon fill="none" stroke="black" points="595,-210 595,-230 848,-230 848,-210 595,-210"/>
<text text-anchor="start" x="665" y="-216.8" font-family="Times,serif" font-size="14.00">[STRING] oid (0..1)</text>
</a>
</g>
<g id="a_node7_46"><a xlink:href="IDMEF_NAV_LINK_TAG?idmef_class=SNMPService" xlink:title="The SNMP version, typically 0 for SNMPv1, 1 for SNMPv2c, 2 for SNMPv2u and SNMPv2*, and 3 for SNMPv3; see RFC 3411 [15] Section 5 for appropriate values.">
<polygon fill="#ffcccc" stroke="none" points="595,-190 595,-210 848,-210 848,-190 595,-190"/>
<polygon fill="none" stroke="black" points="595,-190 595,-210 848,-210 848,-190 595,-190"/>
<text text-anchor="start" x="598.5" y="-196.8" font-family="Times,serif" font-size="14.00">[INTEGER] messageProcessingModel (0..1)</text>
</a>
</g>
<g id="a_node7_47"><a xlink:href="IDMEF_NAV_LINK_TAG?idmef_class=SNMPService" xlink:title="The command sent to the SNMP server (GET, SET, etc.).">
<polygon fill="#ffcccc" stroke="none" points="595,-170 595,-190 848,-190 848,-170 595,-170"/>
<polygon fill="none" stroke="black" points="595,-170 595,-190 848,-190 848,-170 595,-170"/>
<text text-anchor="start" x="646" y="-176.8" font-family="Times,serif" font-size="14.00">[STRING] command (0..1)</text>
</a>
</g>
<g id="a_node7_48"><a xlink:href="IDMEF_NAV_LINK_TAG?idmef_class=SNMPService" xlink:title="The object&#39;s security name; see RFC 3411 [15] Section 3.2.2.">
<polygon fill="#ffcccc" stroke="none" points="595,-150 595,-170 848,-170 848,-150 595,-150"/>
<polygon fill="none" stroke="black" points="595,-150 595,-170 848,-170 848,-150 595,-150"/>
<text text-anchor="start" x="635.5" y="-156.8" font-family="Times,serif" font-size="14.00">[STRING] securityName (0..1)</text>
</a>
</g>
<g id="a_node7_49"><a xlink:href="IDMEF_NAV_LINK_TAG?idmef_class=SNMPService" xlink:title="The identification of the security model in use, typically 0 for any, 1 for SNMPv1, 2 for SNMPv2c, and 3 for USM; see RFC 3411 [15] Section 5 for appropriate values.">
<polygon fill="#ffcccc" stroke="none" points="595,-130 595,-150 848,-150 848,-130 595,-130"/>
<polygon fill="none" stroke="black" points="595,-130 595,-150 848,-150 848,-130 595,-130"/>
<text text-anchor="start" x="629.5" y="-136.8" font-family="Times,serif" font-size="14.00">[INTEGER] securityModel (0..1)</text>
</a>
</g>
</g>
<!-- Service&#45;&gt;SNMPService -->
<g id="edge6" class="edge"><title>Service&#45;&gt;SNMPService</title>
<path fill="none" stroke="black" d="M537.632,-221C553.863,-221 570.322,-221 586.369,-221"/>
<polygon fill="none" stroke="black" points="527.56,-217.5 537.56,-221 527.56,-224.5 527.56,-217.5"/>
</g>
<!-- WebService -->
<g id="node9" class="node"><title>WebService</title>
<g id="a_node9_50"><a xlink:href="IDMEF_NAV_LINK_TAG?idmef_class=WebService" xlink:title="The WebService class carries additional information related to web traffic. ">
<polygon fill="#997a7a" stroke="none" points="636,-83 636,-104 806,-104 806,-83 636,-83"/>
<polygon fill="none" stroke="black" points="636,-83 636,-104 806,-104 806,-83 636,-83"/>
<text text-anchor="start" x="687.5" y="-90.3" font-family="Times,serif" font-size="14.00">WebService</text>
</a>
</g>
<g id="a_node9_51"><a xlink:href="IDMEF_NAV_LINK_TAG?idmef_class=WebService" xlink:title="The URL in the request.">
<polygon fill="#ffcccc" stroke="none" points="636,-63 636,-83 806,-83 806,-63 636,-63"/>
<polygon fill="none" stroke="black" points="636,-63 636,-83 806,-83 806,-63 636,-63"/>
<text text-anchor="start" x="672.5" y="-69.8" font-family="Times,serif" font-size="14.00">[STRING] url (1)</text>
</a>
</g>
<g id="a_node9_52"><a xlink:href="IDMEF_NAV_LINK_TAG?idmef_class=WebService" xlink:title="The CGI script in the request, without arguments.">
<polygon fill="#ffcccc" stroke="none" points="636,-43 636,-63 806,-63 806,-43 636,-43"/>
<polygon fill="none" stroke="black" points="636,-43 636,-63 806,-63 806,-43 636,-43"/>
<text text-anchor="start" x="665" y="-49.8" font-family="Times,serif" font-size="14.00">[STRING] cgi (0..1)</text>
</a>
</g>
<g id="a_node9_53"><a xlink:href="IDMEF_NAV_LINK_TAG?idmef_class=WebService" xlink:title="The HTTP method (PUT, GET) used in the request.">
<polygon fill="#ffcccc" stroke="none" points="636,-23 636,-43 806,-43 806,-23 636,-23"/>
<polygon fill="none" stroke="black" points="636,-23 636,-43 806,-43 806,-23 636,-23"/>
<text text-anchor="start" x="639.5" y="-29.8" font-family="Times,serif" font-size="14.00">[STRING] http&#45;method (0..1)</text>
</a>
</g>
<g id="a_node9_54"><a xlink:href="IDMEF_NAV_LINK_TAG?idmef_class=WebService" xlink:title="The arguments to the CGI script.">
<polygon fill="#ffcccc" stroke="none" points="636,-3 636,-23 806,-23 806,-3 636,-3"/>
<polygon fill="none" stroke="black" points="636,-3 636,-23 806,-23 806,-3 636,-3"/>
<text text-anchor="start" x="664.5" y="-9.8" font-family="Times,serif" font-size="14.00">[STRING] arg (0..*)</text>
</a>
</g>
</g>
<!-- Service&#45;&gt;WebService -->
<g id="edge7" class="edge"><title>Service&#45;&gt;WebService</title>
<path fill="none" stroke="black" d="M536.72,-143.12C553.296,-134.553 569.981,-126.031 586,-118 599.483,-111.241 613.8,-104.229 627.868,-97.4323"/>
<polygon fill="none" stroke="black" points="525.917,-144.773 536.407,-143.282 529.137,-150.989 525.917,-144.773"/>
</g>
</g>
</svg>
