<?xml version="1.0" encoding="UTF-8" standalone="no"?>
<!DOCTYPE svg PUBLIC "-//W3C//DTD SVG 1.1//EN"
 "http://www.w3.org/Graphics/SVG/1.1/DTD/svg11.dtd">
<!-- Generated by graphviz version 2.30.1 (20180420.1509)
 -->
<!-- Title: UserId Pages: 1 -->
<svg width="180pt" height="136pt"
 viewBox="0.00 0.00 180.00 136.00" xmlns="http://www.w3.org/2000/svg" xmlns:xlink="http://www.w3.org/1999/xlink">
<g id="graph0" class="graph" transform="scale(1 1) rotate(0) translate(4 132)">
<title>UserId</title>
<!-- UserId -->
<g id="node1" class="node"><title>UserId</title>
<g id="a_node1_0"><a xlink:href="IDMEF_NAV_LINK_TAG?idmef_class=UserId" xlink:title="The UserId class provides specific information about a user. &#160;More than one UserId can be used within the User class to indicate attempts to transition from one user to another, or to provide complete information about a user&#39;s (or process&#39;) privileges. ">
<polygon fill="#3d7a99" stroke="none" points="8,-103 8,-124 164,-124 164,-103 8,-103"/>
<polygon fill="none" stroke="black" points="8,-103 8,-124 164,-124 164,-103 8,-103"/>
<text text-anchor="start" x="67.5" y="-110.3" font-family="Times,serif" font-size="14.00">UserId</text>
</a>
</g>
<g id="a_node1_1"><a xlink:href="IDMEF_NAV_LINK_TAG?idmef_class=UserId" xlink:title="A user or group name.">
<polygon fill="#66ccff" stroke="none" points="8,-83 8,-103 164,-103 164,-83 8,-83"/>
<polygon fill="none" stroke="black" points="8,-83 8,-103 164,-103 164,-83 8,-83"/>
<text text-anchor="start" x="23" y="-89.8" font-family="Times,serif" font-size="14.00">[STRING] name (0..1)</text>
</a>
</g>
<g id="a_node1_2"><a xlink:href="IDMEF_NAV_LINK_TAG?idmef_class=UserId" xlink:title="A user or group number.">
<polygon fill="#66ccff" stroke="none" points="8,-63 8,-83 164,-83 164,-63 8,-63"/>
<polygon fill="none" stroke="black" points="8,-63 8,-83 164,-83 164,-63 8,-63"/>
<text text-anchor="start" x="12.5" y="-69.8" font-family="Times,serif" font-size="14.00">[INTEGER] number (0..1)</text>
</a>
</g>
<g id="a_node1_3"><a xlink:href="IDMEF_NAV_LINK_TAG?idmef_class=UserId" xlink:title="The tty the user is using.">
<polygon fill="#66ccff" stroke="none" points="8,-43 8,-63 164,-63 164,-43 8,-43"/>
<polygon fill="none" stroke="black" points="8,-43 8,-63 164,-63 164,-43 8,-43"/>
<text text-anchor="start" x="18" y="-49.8" font-family="Times,serif" font-size="14.00">[STRING] tty (Optional)</text>
</a>
</g>
<g id="a_node1_4"><a xlink:href="IDMEF_NAV_LINK_TAG?idmef_class=UserId" xlink:title="A unique identifier for the user id, see Section 3.2.9.">
<polygon fill="#66ccff" stroke="none" points="8,-23 8,-43 164,-43 164,-23 8,-23"/>
<polygon fill="none" stroke="black" points="8,-23 8,-43 164,-43 164,-23 8,-23"/>
<text text-anchor="start" x="11.5" y="-29.8" font-family="Times,serif" font-size="14.00">[STRING] ident (Optional)</text>
</a>
</g>
<g id="a_node1_5"><a xlink:href="IDMEF_NAV_LINK_TAG?idmef_class=UserId" xlink:title="The type of user information represented. &#160;The permitted values for this attribute are shown below. &#160;The default value is &quot;original&#45;user&quot;. &#160;(See also Section 10.)">
<polygon fill="#66ccff" stroke="none" points="8,-3 8,-23 164,-23 164,-3 8,-3"/>
<polygon fill="none" stroke="black" points="8,-3 8,-23 164,-23 164,-3 8,-3"/>
<text text-anchor="start" x="17.5" y="-9.8" font-family="Times,serif" font-size="14.00">[ENUM] type (Optional)</text>
</a>
</g>
</g>
</g>
</svg>
