<?xml version="1.0" encoding="UTF-8" standalone="no"?>
<!DOCTYPE svg PUBLIC "-//W3C//DTD SVG 1.1//EN"
 "http://www.w3.org/Graphics/SVG/1.1/DTD/svg11.dtd">
<!-- Generated by graphviz version 2.30.1 (20180420.1509)
 -->
<!-- Title: User Pages: 1 -->
<svg width="422pt" height="136pt"
 viewBox="0.00 0.00 422.00 136.00" xmlns="http://www.w3.org/2000/svg" xmlns:xlink="http://www.w3.org/1999/xlink">
<g id="graph0" class="graph" transform="scale(1 1) rotate(0) translate(4 132)">
<title>User</title>
<!-- UserId -->
<g id="node1" class="node"><title>UserId</title>
<g id="a_node1_0"><a xlink:href="IDMEF_NAV_LINK_TAG?idmef_class=UserId" xlink:title="The UserId class provides specific information about a user. &#160;More than one UserId can be used within the User class to indicate attempts to transition from one user to another, or to provide complete information about a user&#39;s (or process&#39;) privileges. ">
<polygon fill="#3d7a99" stroke="none" points="250,-103 250,-124 406,-124 406,-103 250,-103"/>
<polygon fill="none" stroke="black" points="250,-103 250,-124 406,-124 406,-103 250,-103"/>
<text text-anchor="start" x="309.5" y="-110.3" font-family="Times,serif" font-size="14.00">UserId</text>
</a>
</g>
<g id="a_node1_1"><a xlink:href="IDMEF_NAV_LINK_TAG?idmef_class=UserId" xlink:title="A user or group name.">
<polygon fill="#66ccff" stroke="none" points="250,-83 250,-103 406,-103 406,-83 250,-83"/>
<polygon fill="none" stroke="black" points="250,-83 250,-103 406,-103 406,-83 250,-83"/>
<text text-anchor="start" x="265" y="-89.8" font-family="Times,serif" font-size="14.00">[STRING] name (0..1)</text>
</a>
</g>
<g id="a_node1_2"><a xlink:href="IDMEF_NAV_LINK_TAG?idmef_class=UserId" xlink:title="A user or group number.">
<polygon fill="#66ccff" stroke="none" points="250,-63 250,-83 406,-83 406,-63 250,-63"/>
<polygon fill="none" stroke="black" points="250,-63 250,-83 406,-83 406,-63 250,-63"/>
<text text-anchor="start" x="254.5" y="-69.8" font-family="Times,serif" font-size="14.00">[INTEGER] number (0..1)</text>
</a>
</g>
<g id="a_node1_3"><a xlink:href="IDMEF_NAV_LINK_TAG?idmef_class=UserId" xlink:title="The tty the user is using.">
<polygon fill="#66ccff" stroke="none" points="250,-43 250,-63 406,-63 406,-43 250,-43"/>
<polygon fill="none" stroke="black" points="250,-43 250,-63 406,-63 406,-43 250,-43"/>
<text text-anchor="start" x="260" y="-49.8" font-family="Times,serif" font-size="14.00">[STRING] tty (Optional)</text>
</a>
</g>
<g id="a_node1_4"><a xlink:href="IDMEF_NAV_LINK_TAG?idmef_class=UserId" xlink:title="A unique identifier for the user id, see Section 3.2.9.">
<polygon fill="#66ccff" stroke="none" points="250,-23 250,-43 406,-43 406,-23 250,-23"/>
<polygon fill="none" stroke="black" points="250,-23 250,-43 406,-43 406,-23 250,-23"/>
<text text-anchor="start" x="253.5" y="-29.8" font-family="Times,serif" font-size="14.00">[STRING] ident (Optional)</text>
</a>
</g>
<g id="a_node1_5"><a xlink:href="IDMEF_NAV_LINK_TAG?idmef_class=UserId" xlink:title="The type of user information represented. &#160;The permitted values for this attribute are shown below. &#160;The default value is &quot;original&#45;user&quot;. &#160;(See also Section 10.)">
<polygon fill="#66ccff" stroke="none" points="250,-3 250,-23 406,-23 406,-3 250,-3"/>
<polygon fill="none" stroke="black" points="250,-3 250,-23 406,-23 406,-3 250,-3"/>
<text text-anchor="start" x="259.5" y="-9.8" font-family="Times,serif" font-size="14.00">[ENUM] type (Optional)</text>
</a>
</g>
</g>
<!-- User -->
<g id="node2" class="node"><title>User</title>
<g id="a_node2_6"><a xlink:href="IDMEF_NAV_LINK_TAG?idmef_class=User" xlink:title="The User class is used to describe users. &#160;It is primarily used as a &quot;container&quot; class for the UserId aggregate class, as shown in Figure 16. ">
<polygon fill="#3d7a99" stroke="none" points="9,-73 9,-94 176,-94 176,-73 9,-73"/>
<polygon fill="none" stroke="black" points="9,-73 9,-94 176,-94 176,-73 9,-73"/>
<text text-anchor="start" x="79.5" y="-80.3" font-family="Times,serif" font-size="14.00">User</text>
</a>
</g>
<g id="a_node2_7"><a xlink:href="IDMEF_NAV_LINK_TAG?idmef_class=User" xlink:title="The type of user represented. &#160;The permitted values for this attribute are shown below. &#160;The default value is &quot;unknown&quot;. (See also Section 10.)">
<polygon fill="#66ccff" stroke="none" points="9,-53 9,-73 176,-73 176,-53 9,-53"/>
<polygon fill="none" stroke="black" points="9,-53 9,-73 176,-73 176,-53 9,-53"/>
<text text-anchor="start" x="12.5" y="-59.8" font-family="Times,serif" font-size="14.00">[ENUM] category (Optional)</text>
</a>
</g>
<g id="a_node2_8"><a xlink:href="IDMEF_NAV_LINK_TAG?idmef_class=User" xlink:title="A unique identifier for the user; see Section 3.2.9.">
<polygon fill="#66ccff" stroke="none" points="9,-33 9,-53 176,-53 176,-33 9,-33"/>
<polygon fill="none" stroke="black" points="9,-33 9,-53 176,-53 176,-33 9,-33"/>
<text text-anchor="start" x="18" y="-39.8" font-family="Times,serif" font-size="14.00">[STRING] ident (Optional)</text>
</a>
</g>
</g>
<!-- User&#45;&gt;UserId -->
<g id="edge1" class="edge"><title>User&#45;&gt;UserId</title>
<path fill="none" stroke="black" d="M183.805,-64C199.508,-64 215.873,-64 231.691,-64"/>
<polygon fill="black" stroke="black" points="231.994,-67.5001 241.994,-64 231.994,-60.5001 231.994,-67.5001"/>
<text text-anchor="middle" x="213" y="-67.8" font-family="Times,serif" font-size="14.00">1..*</text>
</g>
</g>
</svg>
