<?xml version="1.0" encoding="UTF-8" standalone="no"?>
<!DOCTYPE svg PUBLIC "-//W3C//DTD SVG 1.1//EN"
 "http://www.w3.org/Graphics/SVG/1.1/DTD/svg11.dtd">
<!-- Generated by graphviz version 2.30.1 (20180420.1509)
 -->
<!-- Title: WebService Pages: 1 -->
<svg width="194pt" height="116pt"
 viewBox="0.00 0.00 194.00 116.00" xmlns="http://www.w3.org/2000/svg" xmlns:xlink="http://www.w3.org/1999/xlink">
<g id="graph0" class="graph" transform="scale(1 1) rotate(0) translate(4 112)">
<title>WebService</title>
<!-- WebService -->
<g id="node1" class="node"><title>WebService</title>
<g id="a_node1_0"><a xlink:href="IDMEF_NAV_LINK_TAG?idmef_class=WebService" xlink:title="The WebService class carries additional information related to web traffic. ">
<polygon fill="#997a7a" stroke="none" points="8,-83 8,-104 178,-104 178,-83 8,-83"/>
<polygon fill="none" stroke="black" points="8,-83 8,-104 178,-104 178,-83 8,-83"/>
<text text-anchor="start" x="59.5" y="-90.3" font-family="Times,serif" font-size="14.00">WebService</text>
</a>
</g>
<g id="a_node1_1"><a xlink:href="IDMEF_NAV_LINK_TAG?idmef_class=WebService" xlink:title="The URL in the request.">
<polygon fill="#ffcccc" stroke="none" points="8,-63 8,-83 178,-83 178,-63 8,-63"/>
<polygon fill="none" stroke="black" points="8,-63 8,-83 178,-83 178,-63 8,-63"/>
<text text-anchor="start" x="44.5" y="-69.8" font-family="Times,serif" font-size="14.00">[STRING] url (1)</text>
</a>
</g>
<g id="a_node1_2"><a xlink:href="IDMEF_NAV_LINK_TAG?idmef_class=WebService" xlink:title="The CGI script in the request, without arguments.">
<polygon fill="#ffcccc" stroke="none" points="8,-43 8,-63 178,-63 178,-43 8,-43"/>
<polygon fill="none" stroke="black" points="8,-43 8,-63 178,-63 178,-43 8,-43"/>
<text text-anchor="start" x="37" y="-49.8" font-family="Times,serif" font-size="14.00">[STRING] cgi (0..1)</text>
</a>
</g>
<g id="a_node1_3"><a xlink:href="IDMEF_NAV_LINK_TAG?idmef_class=WebService" xlink:title="The HTTP method (PUT, GET) used in the request.">
<polygon fill="#ffcccc" stroke="none" points="8,-23 8,-43 178,-43 178,-23 8,-23"/>
<polygon fill="none" stroke="black" points="8,-23 8,-43 178,-43 178,-23 8,-23"/>
<text text-anchor="start" x="11.5" y="-29.8" font-family="Times,serif" font-size="14.00">[STRING] http&#45;method (0..1)</text>
</a>
</g>
<g id="a_node1_4"><a xlink:href="IDMEF_NAV_LINK_TAG?idmef_class=WebService" xlink:title="The arguments to the CGI script.">
<polygon fill="#ffcccc" stroke="none" points="8,-3 8,-23 178,-23 178,-3 8,-3"/>
<polygon fill="none" stroke="black" points="8,-3 8,-23 178,-23 178,-3 8,-3"/>
<text text-anchor="start" x="36.5" y="-9.8" font-family="Times,serif" font-size="14.00">[STRING] arg (0..*)</text>
</a>
</g>
</g>
</g>
</svg>
